<svg xmlns="http://www.w3.org/2000/svg" width="1800px" height="1100px" viewBox="0 0 1800 1100" role="img">
<title>Scenario tradeoff view</title>
<desc>Scatter plot comparing observed capture rates against total influence distortion across selected scenarios.</desc>
<style>
text { font-family: Helvetica, Arial, sans-serif; font-size: 34px; fill: #111; }
.title { font-size: 46px; font-weight: 700; }
.subtitle { font-size: 30px; fill: #444; }
.small, .tick, .label { font-size: 28px; }
.point-number { font-size: 22px; fill: #fff; font-weight: 700; }
.arch-title { font-size: 30px; font-weight: 700; }
.axis { stroke: #111; stroke-width: 5; fill: none; }
.grid { stroke: #d8d8d8; stroke-width: 3; fill: none; }
.segment, .point, .legend-swatch, .arch-box { stroke: #111; stroke-width: 2; }
.warning-zone { stroke: none; }
.label-box { fill: #fff; stroke: #111; stroke-width: 2; }
.leader { stroke: #333; stroke-width: 2; fill: none; stroke-dasharray: 8 8; }
.threshold { stroke: #999; stroke-width: 4; fill: none; stroke-dasharray: 12 12; }
.series-primary { stroke: #111; stroke-width: 8; fill: none; }
.series-secondary { stroke: #777; stroke-width: 8; fill: none; stroke-dasharray: 24 18; }
</style>
<rect width="100%" height="100%" fill="#fff"/>
<text x="70" y="72" text-anchor="start" class="title">Scenario tradeoff view</text>
<text x="70" y="122" text-anchor="start" class="subtitle">Observed capture versus total distortion</text>
<line x1="284.1" y1="170" x2="284.1" y2="890" class="grid"/>
<text x="284.1" y="938" text-anchor="middle" class="tick">0</text>
<line x1="585.6" y1="170" x2="585.6" y2="890" class="grid"/>
<text x="585.6" y="938" text-anchor="middle" class="tick">0.25</text>
<line x1="887.1" y1="170" x2="887.1" y2="890" class="grid"/>
<text x="887.1" y="938" text-anchor="middle" class="tick">0.5</text>
<line x1="1188.5" y1="170" x2="1188.5" y2="890" class="grid"/>
<text x="1188.5" y="938" text-anchor="middle" class="tick">0.75</text>
<line x1="1490" y1="170" x2="1490" y2="890" class="grid"/>
<text x="1490" y="938" text-anchor="middle" class="tick">1</text>
<line x1="260" y1="890" x2="1490" y2="890" class="grid"/>
<text x="220" y="900" text-anchor="end" class="tick">0.0</text>
<line x1="260" y1="759.1" x2="1490" y2="759.1" class="grid"/>
<text x="220" y="769.1" text-anchor="end" class="tick">0.1</text>
<line x1="260" y1="628.2" x2="1490" y2="628.2" class="grid"/>
<text x="220" y="638.2" text-anchor="end" class="tick">0.2</text>
<line x1="260" y1="497.3" x2="1490" y2="497.3" class="grid"/>
<text x="220" y="507.3" text-anchor="end" class="tick">0.3</text>
<line x1="260" y1="366.4" x2="1490" y2="366.4" class="grid"/>
<text x="220" y="376.4" text-anchor="end" class="tick">0.4</text>
<line x1="260" y1="235.5" x2="1490" y2="235.5" class="grid"/>
<text x="220" y="245.5" text-anchor="end" class="tick">0.5</text>
<line x1="260" y1="890" x2="1490" y2="890" class="axis"/>
<line x1="260" y1="170" x2="260" y2="890" class="axis"/>
<text x="875" y="994" text-anchor="middle">Capture rate</text>
<text x="80" y="530" text-anchor="middle" transform="rotate(-90 80 530)">Total influence distortion</text>
<rect x="1340.0" y="411.2" width="24" height="24" fill="#111111" class="point"/>
<rect x="1478" y="345.7" width="24" height="24" fill="#111111" class="point"/>
<rect x="1478" y="358.7" width="24" height="24" fill="#111111" class="point"/>
<rect x="1340.9" y="309.9" width="24" height="24" fill="#111111" class="point"/>
<rect x="1478" y="343.4" width="24" height="24" fill="#111111" class="point"/>
<rect x="1297.8" y="361.3" width="24" height="24" fill="#111111" class="point"/>
<rect x="1032.5" y="489.3" width="24" height="24" fill="#111111" class="point"/>
<rect x="1023.9" y="444.2" width="24" height="24" fill="#111111" class="point"/>
<rect x="1129.9" y="397.0" width="24" height="24" fill="#111111" class="point"/>
<rect x="693.5" y="556.9" width="24" height="24" fill="#111111" class="point"/>
<rect x="279.5" y="705.5" width="32" height="32" fill="#555555" class="point"/>
<rect x="793.0" y="520.2" width="32" height="32" fill="#555555" class="point"/>
<line x1="1352.9" y1="321.9" x2="1352.9" y2="279.9" class="leader"/>
<line x1="1490" y1="355.4" x2="1490" y2="445.4" class="leader"/>
<line x1="1490" y1="357.7" x2="1515" y2="357.7" class="leader"/>
<line x1="1490" y1="370.7" x2="1490" y2="520.7" class="leader"/>
<line x1="1309.8" y1="373.3" x2="1267.8" y2="357.3" class="leader"/>
<line x1="1141.9" y1="409.0" x2="1141.9" y2="455" class="leader"/>
<line x1="1352.0" y1="423.2" x2="1335" y2="579" class="leader"/>
<line x1="1035.9" y1="456.2" x2="1035.9" y2="546.2" class="leader"/>
<line x1="1044.5" y1="501.3" x2="1044.5" y2="641" class="leader"/>
<line x1="809.0" y1="536.2" x2="809.0" y2="494.2" class="leader"/>
<line x1="705.5" y1="568.9" x2="705.5" y2="610.9" class="leader"/>
<line x1="295.5" y1="721.5" x2="337.5" y2="721.5" class="leader"/>
<rect x="1262.9" y="233.9" width="180" height="46" fill="#ffffff" class="label-box"/>
<text x="1277.9" y="264.9" text-anchor="start" class="label">Dark money</text>
<rect x="1370" y="445.4" width="240" height="46" fill="#ffffff" class="label-box"/>
<text x="1385" y="476.4" text-anchor="start" class="label">Revolving door</text>
<rect x="1515" y="331" width="180" height="46" fill="#ffffff" class="label-box"/>
<text x="1530" y="362" text-anchor="start" class="label">Rulemaking</text>
<rect x="1415" y="520.7" width="150" height="46" fill="#ffffff" class="label-box"/>
<text x="1430" y="551.7" text-anchor="start" class="label">Campaign</text>
<rect x="1027.8" y="311.3" width="240" height="46" fill="#ffffff" class="label-box"/>
<text x="1042.8" y="342.3" text-anchor="start" class="label">Intermediaries</text>
<rect x="1065" y="455" width="195" height="46" fill="#ffffff" class="label-box"/>
<text x="1080" y="486" text-anchor="start" class="label">Procurement</text>
<rect x="1245" y="579" width="90" height="46" fill="#ffffff" class="label-box"/>
<text x="1260" y="610" text-anchor="start" class="label">Open</text>
<rect x="923.4" y="546.2" width="225" height="46" fill="#ffffff" class="label-box"/>
<text x="938.4" y="577.2" text-anchor="start" class="label">Comment auth.</text>
<rect x="885" y="641" width="330" height="46" fill="#ffffff" class="label-box"/>
<text x="900" y="672" text-anchor="start" class="label">Real-time disclosure</text>
<rect x="741.5" y="448.2" width="135" height="46" fill="#ffffff" class="label-box"/>
<text x="756.5" y="479.2" text-anchor="start" class="label">Evasion</text>
<rect x="653.0" y="610.9" width="105" height="46" fill="#ffffff" class="label-box"/>
<text x="668.0" y="641.9" text-anchor="start" class="label">Venue</text>
<rect x="337.5" y="698.5" width="120" height="46" fill="#ffffff" class="label-box"/>
<text x="352.5" y="729.5" text-anchor="start" class="label">Bundle</text>
</svg>
