<svg xmlns="http://www.w3.org/2000/svg" width="1800px" height="1100px" viewBox="0 0 1800 1100" role="img">
<title>Channel allocation mix</title>
<desc>Stacked horizontal bars showing modeled budget allocation shares across influence channels.</desc>
<style>
text { font-family: Helvetica, Arial, sans-serif; font-size: 34px; fill: #111; }
.title { font-size: 46px; font-weight: 700; }
.subtitle { font-size: 30px; fill: #444; }
.small, .tick, .label { font-size: 28px; }
.axis { stroke: #111; stroke-width: 5; fill: none; }
.grid { stroke: #d8d8d8; stroke-width: 3; fill: none; }
.segment, .point, .legend-swatch { stroke: #111; stroke-width: 2; }
.label-box { fill: #fff; stroke: #111; stroke-width: 2; }
.leader { stroke: #333; stroke-width: 2; fill: none; stroke-dasharray: 8 8; }
.series-primary { stroke: #111; stroke-width: 8; fill: none; }
.series-secondary { stroke: #777; stroke-width: 8; fill: none; stroke-dasharray: 24 18; }
</style>
<rect width="100%" height="100%" fill="#fff"/>
<text x="70" y="72" text-anchor="start" class="title">Channel allocation mix</text>
<text x="70" y="122" text-anchor="start" class="subtitle">Share of lobby spending by channel</text>
<line x1="440" y1="288" x2="440" y2="984" class="grid"/>
<text x="440" y="1032" text-anchor="middle" class="tick">0</text>
<line x1="700" y1="288" x2="700" y2="984" class="grid"/>
<text x="700" y="1032" text-anchor="middle" class="tick">0.25</text>
<line x1="960" y1="288" x2="960" y2="984" class="grid"/>
<text x="960" y="1032" text-anchor="middle" class="tick">0.5</text>
<line x1="1220" y1="288" x2="1220" y2="984" class="grid"/>
<text x="1220" y="1032" text-anchor="middle" class="tick">0.75</text>
<line x1="1480" y1="288" x2="1480" y2="984" class="grid"/>
<text x="1480" y="1032" text-anchor="middle" class="tick">1</text>
<text x="70" y="339" text-anchor="start">Open access</text>
<rect x="440" y="310" width="119.8" height="38" fill="#d0d0d0" class="segment"/>
<rect x="559.8" y="310" width="126.2" height="38" fill="#ababab" class="segment"/>
<rect x="686.0" y="310" width="151.9" height="38" fill="#808080" class="segment"/>
<rect x="837.9" y="310" width="85.9" height="38" fill="#595959" class="segment"/>
<rect x="923.8" y="310" width="102.6" height="38" fill="#333333" class="segment"/>
<rect x="1026.5" y="310" width="87.3" height="38" fill="#1f4e79" class="segment"/>
<rect x="1113.7" y="310" width="83.2" height="38" fill="#8c564b" class="segment"/>
<rect x="1196.9" y="310" width="45.2" height="38" fill="#000000" class="segment"/>
<text x="70" y="421" text-anchor="start">Rulemaking</text>
<rect x="440" y="392" width="62.3" height="38" fill="#d0d0d0" class="segment"/>
<rect x="502.3" y="392" width="466.3" height="38" fill="#ababab" class="segment"/>
<rect x="968.6" y="392" width="73.5" height="38" fill="#808080" class="segment"/>
<rect x="1042.2" y="392" width="20.9" height="38" fill="#595959" class="segment"/>
<rect x="1063.1" y="392" width="125.4" height="38" fill="#333333" class="segment"/>
<rect x="1188.5" y="392" width="52" height="38" fill="#1f4e79" class="segment"/>
<rect x="1240.5" y="392" width="104.1" height="38" fill="#8c564b" class="segment"/>
<text x="70" y="503" text-anchor="start">Campaign</text>
<rect x="440" y="474" width="72.8" height="38" fill="#d0d0d0" class="segment"/>
<rect x="512.8" y="474" width="41.6" height="38" fill="#ababab" class="segment"/>
<rect x="554.4" y="474" width="72.8" height="38" fill="#808080" class="segment"/>
<rect x="627.2" y="474" width="499.2" height="38" fill="#595959" class="segment"/>
<rect x="1126.4" y="474" width="104" height="38" fill="#333333" class="segment"/>
<rect x="1230.4" y="474" width="52" height="38" fill="#1f4e79" class="segment"/>
<rect x="1282.4" y="474" width="83.2" height="38" fill="#8c564b" class="segment"/>
<text x="70" y="585" text-anchor="start">Dark money</text>
<rect x="440" y="556" width="63.4" height="38" fill="#d0d0d0" class="segment"/>
<rect x="503.4" y="556" width="112.1" height="38" fill="#ababab" class="segment"/>
<rect x="615.6" y="556" width="217.9" height="38" fill="#808080" class="segment"/>
<rect x="833.4" y="556" width="63.9" height="38" fill="#595959" class="segment"/>
<rect x="897.3" y="556" width="189.6" height="38" fill="#333333" class="segment"/>
<rect x="1086.9" y="556" width="70.5" height="38" fill="#1f4e79" class="segment"/>
<rect x="1157.4" y="556" width="90.3" height="38" fill="#8c564b" class="segment"/>
<rect x="1247.7" y="556" width="50.2" height="38" fill="#000000" class="segment"/>
<text x="70" y="667" text-anchor="start">Intermediary</text>
<rect x="440" y="638" width="58.7" height="38" fill="#d0d0d0" class="segment"/>
<rect x="498.7" y="638" width="114.4" height="38" fill="#ababab" class="segment"/>
<rect x="613.1" y="638" width="227.2" height="38" fill="#808080" class="segment"/>
<rect x="840.3" y="638" width="65.6" height="38" fill="#595959" class="segment"/>
<rect x="905.9" y="638" width="210.0" height="38" fill="#333333" class="segment"/>
<rect x="1115.9" y="638" width="46.5" height="38" fill="#1f4e79" class="segment"/>
<rect x="1162.4" y="638" width="89.6" height="38" fill="#8c564b" class="segment"/>
<rect x="1252.0" y="638" width="49.4" height="38" fill="#000000" class="segment"/>
<text x="70" y="749" text-anchor="start">Vouchers</text>
<rect x="440" y="720" width="62.4" height="38" fill="#d0d0d0" class="segment"/>
<rect x="502.4" y="720" width="114.4" height="38" fill="#ababab" class="segment"/>
<rect x="616.8" y="720" width="169.8" height="38" fill="#808080" class="segment"/>
<rect x="786.6" y="720" width="65.8" height="38" fill="#595959" class="segment"/>
<rect x="852.5" y="720" width="215.0" height="38" fill="#333333" class="segment"/>
<rect x="1067.4" y="720" width="48.6" height="38" fill="#1f4e79" class="segment"/>
<rect x="1116" y="720" width="90.2" height="38" fill="#8c564b" class="segment"/>
<rect x="1206.2" y="720" width="69.4" height="38" fill="#000000" class="segment"/>
<text x="70" y="831" text-anchor="start">Full bundle</text>
<rect x="440" y="802" width="64.6" height="38" fill="#d0d0d0" class="segment"/>
<rect x="504.6" y="802" width="144.8" height="38" fill="#ababab" class="segment"/>
<rect x="649.4" y="802" width="205.4" height="38" fill="#808080" class="segment"/>
<rect x="854.8" y="802" width="55.6" height="38" fill="#595959" class="segment"/>
<rect x="910.4" y="802" width="152.3" height="38" fill="#333333" class="segment"/>
<rect x="1062.6" y="802" width="51.3" height="38" fill="#1f4e79" class="segment"/>
<rect x="1113.9" y="802" width="96.7" height="38" fill="#8c564b" class="segment"/>
<rect x="1210.6" y="802" width="63.0" height="38" fill="#000000" class="segment"/>
<text x="70" y="913" text-anchor="start">Bundle+evasion</text>
<rect x="440" y="884" width="63.4" height="38" fill="#d0d0d0" class="segment"/>
<rect x="503.4" y="884" width="144.4" height="38" fill="#ababab" class="segment"/>
<rect x="647.8" y="884" width="221.6" height="38" fill="#808080" class="segment"/>
<rect x="869.4" y="884" width="55.7" height="38" fill="#595959" class="segment"/>
<rect x="925.2" y="884" width="152.4" height="38" fill="#333333" class="segment"/>
<rect x="1077.5" y="884" width="50.6" height="38" fill="#1f4e79" class="segment"/>
<rect x="1128.2" y="884" width="96.5" height="38" fill="#8c564b" class="segment"/>
<rect x="1224.7" y="884" width="57" height="38" fill="#000000" class="segment"/>
<line x1="440" y1="290" x2="440" y2="984" class="axis"/>
<line x1="440" y1="984" x2="1480" y2="984" class="axis"/>
<text x="960" y="1076" text-anchor="middle">Share of lobby spending by channel</text>
<rect x="70" y="156" width="42" height="28" fill="#d0d0d0" class="legend-swatch"/>
<text x="126" y="180" text-anchor="start" class="small">Access</text>
<rect x="475" y="156" width="42" height="28" fill="#ababab" class="legend-swatch"/>
<text x="531" y="180" text-anchor="start" class="small">Info</text>
<rect x="880" y="156" width="42" height="28" fill="#808080" class="legend-swatch"/>
<text x="936" y="180" text-anchor="start" class="small">Public</text>
<rect x="1285" y="156" width="42" height="28" fill="#595959" class="legend-swatch"/>
<text x="1341" y="180" text-anchor="start" class="small">Campaign</text>
<rect x="70" y="206" width="42" height="28" fill="#333333" class="legend-swatch"/>
<text x="126" y="230" text-anchor="start" class="small">Dark</text>
<rect x="475" y="206" width="42" height="28" fill="#1f4e79" class="legend-swatch"/>
<text x="531" y="230" text-anchor="start" class="small">Door</text>
<rect x="880" y="206" width="42" height="28" fill="#8c564b" class="legend-swatch"/>
<text x="936" y="230" text-anchor="start" class="small">Intermediary</text>
<rect x="1285" y="206" width="42" height="28" fill="#000000" class="legend-swatch"/>
<text x="1341" y="230" text-anchor="start" class="small">Defense</text>
</svg>
