<svg xmlns="http://www.w3.org/2000/svg" width="1800px" height="1100px" viewBox="0 0 1800 1100" role="img">
<title>Model architecture</title>
<desc>Conceptual diagram showing funders and lobby organizations allocating budgets through influence channels into institutional arenas, with metrics and reform feedback.</desc>
<style>
text { font-family: Helvetica, Arial, sans-serif; font-size: 34px; fill: #111; }
.title { font-size: 46px; font-weight: 700; }
.subtitle { font-size: 30px; fill: #444; }
.small, .tick, .label { font-size: 28px; }
.point-number { font-size: 22px; fill: #fff; font-weight: 700; }
.arch-title { font-size: 30px; font-weight: 700; }
.axis { stroke: #111; stroke-width: 5; fill: none; }
.grid { stroke: #d8d8d8; stroke-width: 3; fill: none; }
.segment, .point, .legend-swatch, .arch-box { stroke: #111; stroke-width: 2; }
.warning-zone { stroke: none; }
.label-box { fill: #fff; stroke: #111; stroke-width: 2; }
.leader { stroke: #333; stroke-width: 2; fill: none; stroke-dasharray: 8 8; }
.threshold { stroke: #999; stroke-width: 4; fill: none; stroke-dasharray: 12 12; }
.series-primary { stroke: #111; stroke-width: 8; fill: none; }
.series-secondary { stroke: #777; stroke-width: 8; fill: none; stroke-dasharray: 24 18; }
</style>
<rect width="100%" height="100%" fill="#fff"/>
<text x="70" y="72" text-anchor="start" class="title">Model architecture</text>
<text x="70" y="122" text-anchor="start" class="subtitle">Influence budgets, substitution, arena outcomes, and reform feedback</text>
<rect x="70" y="235" width="370" height="170" fill="#f7f7f7" class="arch-box"/>
<text x="255" y="282" text-anchor="middle" class="arch-title">Funders and clients</text>
<text x="255" y="323" text-anchor="middle" class="small">Private gain,</text>
<text x="255" y="355" text-anchor="middle" class="small">exposure,</text>
<text x="255" y="387" text-anchor="middle" class="small">secrecy need</text>
<rect x="500" y="235" width="370" height="170" fill="#f7f7f7" class="arch-box"/>
<text x="685" y="282" text-anchor="middle" class="arch-title">Lobby organizations</text>
<text x="685" y="323" text-anchor="middle" class="small">Budgets,</text>
<text x="685" y="355" text-anchor="middle" class="small">skills,</text>
<text x="685" y="387" text-anchor="middle" class="small">strategy memory</text>
<rect x="930" y="235" width="370" height="170" fill="#f7f7f7" class="arch-box"/>
<text x="1115" y="282" text-anchor="middle" class="arch-title">Influence channels</text>
<text x="1115" y="323" text-anchor="middle" class="small">Access, finance,</text>
<text x="1115" y="355" text-anchor="middle" class="small">comments,</text>
<text x="1115" y="387" text-anchor="middle" class="small">intermediaries</text>
<rect x="1360" y="235" width="370" height="170" fill="#f7f7f7" class="arch-box"/>
<text x="1545" y="282" text-anchor="middle" class="arch-title">Institutional arenas</text>
<text x="1545" y="323" text-anchor="middle" class="small">Elections,</text>
<text x="1545" y="355" text-anchor="middle" class="small">rulemaking,</text>
<text x="1545" y="387" text-anchor="middle" class="small">procurement</text>
<rect x="1360" y="535" width="370" height="170" fill="#f7f7f7" class="arch-box"/>
<text x="1545" y="582" text-anchor="middle" class="arch-title">Outcomes and metrics</text>
<text x="1545" y="623" text-anchor="middle" class="small">Observed capture,</text>
<text x="1545" y="655" text-anchor="middle" class="small">hidden capture,</text>
<text x="1545" y="687" text-anchor="middle" class="small">total distortion</text>
<line x1="440" y1="320" x2="500" y2="320" class="axis"/>
<line x1="480" y1="306" x2="500" y2="320" class="axis"/>
<line x1="480" y1="334" x2="500" y2="320" class="axis"/>
<line x1="870" y1="320" x2="930" y2="320" class="axis"/>
<line x1="910" y1="306" x2="930" y2="320" class="axis"/>
<line x1="910" y1="334" x2="930" y2="320" class="axis"/>
<line x1="1300" y1="320" x2="1360" y2="320" class="axis"/>
<line x1="1340" y1="306" x2="1360" y2="320" class="axis"/>
<line x1="1340" y1="334" x2="1360" y2="320" class="axis"/>
<line x1="1545" y1="405" x2="1545" y2="535" class="axis"/>
<line x1="1531" y1="515" x2="1545" y2="535" class="axis"/>
<line x1="1559" y1="515" x2="1545" y2="535" class="axis"/>
<rect x="360" y="805" width="1080" height="135" fill="#ffffff" class="arch-box"/>
<text x="900" y="856" text-anchor="middle" class="arch-title">Reforms alter channel costs, visibility, enforcement, and participation capacity</text>
<text x="900" y="902" text-anchor="middle" class="small">Substitution moves influence across messengers, venues, financing routes, and technical records</text>
<line x1="685" y1="805" x2="685" y2="405" class="threshold"/>
<line x1="1545" y1="805" x2="1545" y2="705" class="threshold"/>
</svg>
