<svg xmlns="http://www.w3.org/2000/svg" width="1800px" height="1100px" viewBox="0 0 1800 1100" role="img">
<title>Channel allocation mix</title>
<desc>Stacked horizontal bars showing modeled budget allocation shares across influence channels.</desc>
<style>
text { font-family: Helvetica, Arial, sans-serif; font-size: 34px; fill: #111; }
.title { font-size: 46px; font-weight: 700; }
.subtitle { font-size: 30px; fill: #444; }
.small, .tick, .label { font-size: 28px; }
.point-number { font-size: 22px; fill: #fff; font-weight: 700; }
.arch-title { font-size: 30px; font-weight: 700; }
.axis { stroke: #111; stroke-width: 5; fill: none; }
.grid { stroke: #d8d8d8; stroke-width: 3; fill: none; }
.segment, .point, .legend-swatch, .arch-box { stroke: #111; stroke-width: 2; }
.warning-zone { stroke: none; }
.label-box { fill: #fff; stroke: #111; stroke-width: 2; }
.leader { stroke: #333; stroke-width: 2; fill: none; stroke-dasharray: 8 8; }
.threshold { stroke: #999; stroke-width: 4; fill: none; stroke-dasharray: 12 12; }
.series-primary { stroke: #111; stroke-width: 8; fill: none; }
.series-secondary { stroke: #777; stroke-width: 8; fill: none; stroke-dasharray: 24 18; }
</style>
<rect width="100%" height="100%" fill="#fff"/>
<text x="70" y="72" text-anchor="start" class="title">Channel allocation mix</text>
<text x="70" y="122" text-anchor="start" class="subtitle">Share of lobby spending by channel</text>
<line x1="440" y1="288" x2="440" y2="984" class="grid"/>
<text x="440" y="1032" text-anchor="middle" class="tick">0</text>
<line x1="700" y1="288" x2="700" y2="984" class="grid"/>
<text x="700" y="1032" text-anchor="middle" class="tick">0.25</text>
<line x1="960" y1="288" x2="960" y2="984" class="grid"/>
<text x="960" y="1032" text-anchor="middle" class="tick">0.5</text>
<line x1="1220" y1="288" x2="1220" y2="984" class="grid"/>
<text x="1220" y="1032" text-anchor="middle" class="tick">0.75</text>
<line x1="1480" y1="288" x2="1480" y2="984" class="grid"/>
<text x="1480" y="1032" text-anchor="middle" class="tick">1</text>
<text x="70" y="339" text-anchor="start">Open access</text>
<rect x="440" y="310" width="217.4" height="38" fill="#d0d0d0" class="segment"/>
<rect x="657.4" y="310" width="272.0" height="38" fill="#9e9e9e" class="segment"/>
<rect x="929.3" y="310" width="209.2" height="38" fill="#595959" class="segment"/>
<rect x="1138.6" y="310" width="294.5" height="38" fill="#1f4e79" class="segment"/>
<rect x="1433.1" y="310" width="47" height="38" fill="#000000" class="segment"/>
<text x="70" y="421" text-anchor="start">Rulemaking</text>
<rect x="440" y="392" width="130.4" height="38" fill="#d0d0d0" class="segment"/>
<rect x="570.4" y="392" width="449.8" height="38" fill="#9e9e9e" class="segment"/>
<rect x="1020.2" y="392" width="277.1" height="38" fill="#595959" class="segment"/>
<rect x="1297.3" y="392" width="182.5" height="38" fill="#1f4e79" class="segment"/>
<text x="70" y="503" text-anchor="start">Campaign</text>
<rect x="440" y="474" width="119.8" height="38" fill="#d0d0d0" class="segment"/>
<rect x="559.8" y="474" width="411.8" height="38" fill="#9e9e9e" class="segment"/>
<rect x="971.6" y="474" width="332.0" height="38" fill="#595959" class="segment"/>
<rect x="1303.6" y="474" width="176.4" height="38" fill="#1f4e79" class="segment"/>
<text x="70" y="585" text-anchor="start">Dark money</text>
<rect x="440" y="556" width="148.4" height="38" fill="#d0d0d0" class="segment"/>
<rect x="588.4" y="556" width="318.9" height="38" fill="#9e9e9e" class="segment"/>
<rect x="907.3" y="556" width="260.9" height="38" fill="#595959" class="segment"/>
<rect x="1168.2" y="556" width="262.6" height="38" fill="#1f4e79" class="segment"/>
<rect x="1430.8" y="556" width="49.1" height="38" fill="#000000" class="segment"/>
<text x="70" y="667" text-anchor="start">Intermediary</text>
<rect x="440" y="638" width="139.3" height="38" fill="#d0d0d0" class="segment"/>
<rect x="579.3" y="638" width="353.3" height="38" fill="#9e9e9e" class="segment"/>
<rect x="932.5" y="638" width="277.3" height="38" fill="#595959" class="segment"/>
<rect x="1209.8" y="638" width="225.9" height="38" fill="#1f4e79" class="segment"/>
<rect x="1435.7" y="638" width="44.2" height="38" fill="#000000" class="segment"/>
<text x="70" y="749" text-anchor="start">Vouchers</text>
<rect x="440" y="720" width="149.4" height="38" fill="#d0d0d0" class="segment"/>
<rect x="589.4" y="720" width="284.6" height="38" fill="#9e9e9e" class="segment"/>
<rect x="874.1" y="720" width="278.4" height="38" fill="#595959" class="segment"/>
<rect x="1152.5" y="720" width="257.3" height="38" fill="#1f4e79" class="segment"/>
<rect x="1409.8" y="720" width="70.1" height="38" fill="#000000" class="segment"/>
<text x="70" y="831" text-anchor="start">Full bundle</text>
<rect x="440" y="802" width="146.2" height="38" fill="#d0d0d0" class="segment"/>
<rect x="586.2" y="802" width="336.5" height="38" fill="#9e9e9e" class="segment"/>
<rect x="922.8" y="802" width="201.8" height="38" fill="#595959" class="segment"/>
<rect x="1124.5" y="802" width="293.2" height="38" fill="#1f4e79" class="segment"/>
<rect x="1417.7" y="802" width="62.2" height="38" fill="#000000" class="segment"/>
<text x="70" y="913" text-anchor="start">Bundle+evasion</text>
<rect x="440" y="884" width="143.8" height="38" fill="#d0d0d0" class="segment"/>
<rect x="583.8" y="884" width="353.9" height="38" fill="#9e9e9e" class="segment"/>
<rect x="937.7" y="884" width="202.0" height="38" fill="#595959" class="segment"/>
<rect x="1139.7" y="884" width="284.3" height="38" fill="#1f4e79" class="segment"/>
<rect x="1424.0" y="884" width="56.0" height="38" fill="#000000" class="segment"/>
<line x1="440" y1="290" x2="440" y2="984" class="axis"/>
<line x1="440" y1="984" x2="1480" y2="984" class="axis"/>
<text x="960" y="1076" text-anchor="middle">Share of lobby spending by channel</text>
<rect x="70" y="156" width="42" height="28" fill="#d0d0d0" class="legend-swatch"/>
<text x="126" y="180" text-anchor="start" class="small">Visible access</text>
<rect x="600" y="156" width="42" height="28" fill="#9e9e9e" class="legend-swatch"/>
<text x="656" y="180" text-anchor="start" class="small">Public/technical information</text>
<rect x="1130" y="156" width="42" height="28" fill="#595959" class="legend-swatch"/>
<text x="1186" y="180" text-anchor="start" class="small">Money channels</text>
<rect x="70" y="206" width="42" height="28" fill="#1f4e79" class="legend-swatch"/>
<text x="126" y="230" text-anchor="start" class="small">Intermediary/venue channels</text>
<rect x="600" y="206" width="42" height="28" fill="#000000" class="legend-swatch"/>
<text x="656" y="230" text-anchor="start" class="small">Defense/evasion</text>
</svg>
