<svg xmlns="http://www.w3.org/2000/svg" width="1800px" height="1100px" viewBox="0 0 1800 1100" role="img">
<title>Apparent success and substitution warnings</title>
<desc>Scatter plot comparing observed capture deltas with total influence distortion deltas for flagged substitution-audit rows.</desc>
<style>
text { font-family: Helvetica, Arial, sans-serif; font-size: 34px; fill: #111; }
.title { font-size: 46px; font-weight: 700; }
.subtitle { font-size: 30px; fill: #444; }
.small, .tick, .label { font-size: 28px; }
.point-number { font-size: 22px; fill: #fff; font-weight: 700; }
.arch-title { font-size: 30px; font-weight: 700; }
.axis { stroke: #111; stroke-width: 5; fill: none; }
.grid { stroke: #d8d8d8; stroke-width: 3; fill: none; }
.segment, .point, .legend-swatch, .arch-box { stroke: #111; stroke-width: 2; }
.warning-zone { stroke: none; }
.label-box { fill: #fff; stroke: #111; stroke-width: 2; }
.leader { stroke: #333; stroke-width: 2; fill: none; stroke-dasharray: 8 8; }
.threshold { stroke: #999; stroke-width: 4; fill: none; stroke-dasharray: 12 12; }
.series-primary { stroke: #111; stroke-width: 8; fill: none; }
.series-secondary { stroke: #777; stroke-width: 8; fill: none; stroke-dasharray: 24 18; }
</style>
<rect width="100%" height="100%" fill="#fff"/>
<text x="70" y="72" text-anchor="start" class="title">Apparent success and substitution warnings</text>
<text x="70" y="122" text-anchor="start" class="subtitle">Observed capture change versus total-distortion change</text>
<rect x="260" y="170" width="984" height="432" fill="#f2f2f2" class="warning-zone"/>
<line x1="260" y1="170" x2="260" y2="890" class="grid"/>
<text x="260" y="938" text-anchor="middle" class="tick">-1</text>
<line x1="506" y1="170" x2="506" y2="890" class="grid"/>
<text x="506" y="938" text-anchor="middle" class="tick">-0.75</text>
<line x1="752" y1="170" x2="752" y2="890" class="grid"/>
<text x="752" y="938" text-anchor="middle" class="tick">-0.5</text>
<line x1="998" y1="170" x2="998" y2="890" class="grid"/>
<text x="998" y="938" text-anchor="middle" class="tick">-0.25</text>
<line x1="1244" y1="170" x2="1244" y2="890" class="grid"/>
<text x="1244" y="938" text-anchor="middle" class="tick">0</text>
<line x1="1490" y1="170" x2="1490" y2="890" class="grid"/>
<text x="1490" y="938" text-anchor="middle" class="tick">0.25</text>
<line x1="260" y1="890" x2="1490" y2="890" class="grid"/>
<text x="220" y="900" text-anchor="end" class="tick">-0.2</text>
<line x1="260" y1="746" x2="1490" y2="746" class="grid"/>
<text x="220" y="756" text-anchor="end" class="tick">-0.1</text>
<line x1="260" y1="602" x2="1490" y2="602" class="grid"/>
<text x="220" y="612" text-anchor="end" class="tick">0.0</text>
<line x1="260" y1="458" x2="1490" y2="458" class="grid"/>
<text x="220" y="468" text-anchor="end" class="tick">0.1</text>
<line x1="260" y1="314" x2="1490" y2="314" class="grid"/>
<text x="220" y="324" text-anchor="end" class="tick">0.2</text>
<line x1="260" y1="170" x2="1490" y2="170" class="grid"/>
<text x="220" y="180" text-anchor="end" class="tick">0.3</text>
<line x1="260" y1="890" x2="1490" y2="890" class="axis"/>
<line x1="260" y1="170" x2="260" y2="890" class="axis"/>
<text x="875" y="994" text-anchor="middle">Observed capture change vs. comparison</text>
<text x="80" y="530" text-anchor="middle" transform="rotate(-90 80 530)">Total distortion change vs. comparison</text>
<line x1="1244" y1="170" x2="1244" y2="890" class="threshold"/>
<line x1="260" y1="602" x2="1490" y2="602" class="threshold"/>
<text x="1222" y="210" text-anchor="end" class="small">capture lower, distortion higher</text>
<text x="1266" y="582" text-anchor="start" class="small">distortion higher</text>
<rect x="1010.9" y="520.3" width="32" height="32" fill="#555555" class="point"/>
<rect x="919.6" y="570.6" width="24" height="24" fill="#111111" class="point"/>
<rect x="920.9" y="603.7" width="24" height="24" fill="#111111" class="point"/>
<rect x="1015.3" y="516.4" width="32" height="32" fill="#555555" class="point"/>
<rect x="847.9" y="664.7" width="24" height="24" fill="#111111" class="point"/>
<rect x="792.3" y="713.4" width="24" height="24" fill="#111111" class="point"/>
<rect x="369.8" y="878" width="24" height="24" fill="#111111" class="point"/>
<rect x="987.0" y="584.5" width="24" height="24" fill="#111111" class="point"/>
<rect x="1026.3" y="553.3" width="32" height="32" fill="#555555" class="point"/>
<rect x="1057.7" y="555.2" width="32" height="32" fill="#555555" class="point"/>
<line x1="1031.3" y1="532.4" x2="1031.3" y2="490.4" class="leader"/>
<line x1="1026.9" y1="536.3" x2="1026.9" y2="641" class="leader"/>
<line x1="1042.3" y1="569.3" x2="1042.3" y2="419.3" class="leader"/>
<line x1="1073.7" y1="571.2" x2="1073.7" y2="721.2" class="leader"/>
<line x1="931.6" y1="582.6" x2="931.6" y2="563" class="leader"/>
<line x1="999.0" y1="596.5" x2="999.0" y2="816.5" class="leader"/>
<line x1="932.9" y1="615.7" x2="862.9" y2="615.7" class="leader"/>
<line x1="859.9" y1="676.7" x2="769.9" y2="692.7" class="leader"/>
<line x1="804.3" y1="725.4" x2="720" y2="765" class="leader"/>
<line x1="381.8" y1="890" x2="381.8" y2="439" class="leader"/>
<rect x="896.3" y="444.4" width="270" height="46" fill="#ffffff" class="label-box"/>
<text x="911.3" y="475.4" text-anchor="start" class="label">Camp. Proc. mods</text>
<rect x="885" y="641" width="330" height="46" fill="#ffffff" class="label-box"/>
<text x="900" y="672" text-anchor="start" class="label">Camp. Ban+DM leakage</text>
<rect x="839.8" y="373.3" width="405" height="46" fill="#ffffff" class="label-box"/>
<text x="854.8" y="404.3" text-anchor="start" class="label">9. Camp. Meeting-log leak</text>
<rect x="886.2" y="721.2" width="375" height="46" fill="#ffffff" class="label-box"/>
<text x="901.2" y="752.2" text-anchor="start" class="label">10. Camp. Budget stress</text>
<rect x="705" y="517" width="270" height="46" fill="#ffffff" class="label-box"/>
<text x="720" y="548" text-anchor="start" class="label">Camp. Shadow max</text>
<rect x="826.5" y="816.5" width="345" height="46" fill="#ffffff" class="label-box"/>
<text x="841.5" y="847.5" text-anchor="start" class="label">8. Camp. Comment tech</text>
<rect x="472.9" y="595.7" width="390" height="46" fill="#ffffff" class="label-box"/>
<text x="487.9" y="626.7" text-anchor="start" class="label">Camp. Opaque network sub</text>
<rect x="379.9" y="692.7" width="390" height="46" fill="#ffffff" class="label-box"/>
<text x="394.9" y="723.7" text-anchor="start" class="label">Camp. Public-finance dar</text>
<rect x="345" y="765" width="375" height="46" fill="#ffffff" class="label-box"/>
<text x="360" y="796" text-anchor="start" class="label">6. Camp. Bundle+evasion</text>
<rect x="255" y="393" width="435" height="46" fill="#ffffff" class="label-box"/>
<text x="270" y="424" text-anchor="start" class="label">7. Camp. Full anti-capture </text>
</svg>
