<svg xmlns="http://www.w3.org/2000/svg" width="1800px" height="1100px" viewBox="0 0 1800 1100" role="img">
<title>Apparent success versus substitution failure</title>
<desc>Scatter plot comparing observed capture deltas with total influence distortion deltas for flagged audit rows.</desc>
<style>
text { font-family: Helvetica, Arial, sans-serif; font-size: 34px; fill: #111; }
.title { font-size: 46px; font-weight: 700; }
.subtitle { font-size: 30px; fill: #444; }
.small, .tick, .label { font-size: 28px; }
.axis { stroke: #111; stroke-width: 5; fill: none; }
.grid { stroke: #d8d8d8; stroke-width: 3; fill: none; }
.segment, .point, .legend-swatch { stroke: #111; stroke-width: 2; }
.label-box { fill: #fff; stroke: #111; stroke-width: 2; }
.leader { stroke: #333; stroke-width: 2; fill: none; stroke-dasharray: 8 8; }
.threshold { stroke: #999; stroke-width: 4; fill: none; stroke-dasharray: 12 12; }
.series-primary { stroke: #111; stroke-width: 8; fill: none; }
.series-secondary { stroke: #777; stroke-width: 8; fill: none; stroke-dasharray: 24 18; }
</style>
<rect width="100%" height="100%" fill="#fff"/>
<text x="70" y="72" text-anchor="start" class="title">Apparent success versus substitution failure</text>
<text x="70" y="122" text-anchor="start" class="subtitle">Capture change against total-distortion change</text>
<line x1="260" y1="170" x2="260" y2="890" class="grid"/>
<text x="260" y="938" text-anchor="middle" class="tick">-1</text>
<line x1="506" y1="170" x2="506" y2="890" class="grid"/>
<text x="506" y="938" text-anchor="middle" class="tick">-0.75</text>
<line x1="752" y1="170" x2="752" y2="890" class="grid"/>
<text x="752" y="938" text-anchor="middle" class="tick">-0.5</text>
<line x1="998" y1="170" x2="998" y2="890" class="grid"/>
<text x="998" y="938" text-anchor="middle" class="tick">-0.25</text>
<line x1="1244" y1="170" x2="1244" y2="890" class="grid"/>
<text x="1244" y="938" text-anchor="middle" class="tick">0</text>
<line x1="1490" y1="170" x2="1490" y2="890" class="grid"/>
<text x="1490" y="938" text-anchor="middle" class="tick">0.25</text>
<line x1="260" y1="890" x2="1490" y2="890" class="grid"/>
<text x="220" y="900" text-anchor="end" class="tick">-0.2</text>
<line x1="260" y1="746" x2="1490" y2="746" class="grid"/>
<text x="220" y="756" text-anchor="end" class="tick">-0.1</text>
<line x1="260" y1="602" x2="1490" y2="602" class="grid"/>
<text x="220" y="612" text-anchor="end" class="tick">0.0</text>
<line x1="260" y1="458" x2="1490" y2="458" class="grid"/>
<text x="220" y="468" text-anchor="end" class="tick">0.1</text>
<line x1="260" y1="314" x2="1490" y2="314" class="grid"/>
<text x="220" y="324" text-anchor="end" class="tick">0.2</text>
<line x1="260" y1="170" x2="1490" y2="170" class="grid"/>
<text x="220" y="180" text-anchor="end" class="tick">0.3</text>
<line x1="260" y1="890" x2="1490" y2="890" class="axis"/>
<line x1="260" y1="170" x2="260" y2="890" class="axis"/>
<text x="875" y="994" text-anchor="middle">Observed capture delta</text>
<text x="80" y="530" text-anchor="middle" transform="rotate(-90 80 530)">Total distortion delta</text>
<line x1="1244" y1="170" x2="1244" y2="890" class="threshold"/>
<line x1="260" y1="602" x2="1490" y2="602" class="threshold"/>
<text x="1222" y="210" text-anchor="end" class="small">visible capture lower</text>
<text x="1266" y="582" text-anchor="start" class="small">distortion higher</text>
<rect x="840" y="690.0" width="32" height="32" fill="#555555" class="point"/>
<rect x="912.8" y="600.5" width="32" height="32" fill="#555555" class="point"/>
<rect x="379" y="874" width="32" height="32" fill="#555555" class="point"/>
<rect x="1060.1" y="548.7" width="32" height="32" fill="#555555" class="point"/>
<rect x="999.2" y="545.7" width="32" height="32" fill="#555555" class="point"/>
<rect x="933.8" y="641.3" width="32" height="32" fill="#555555" class="point"/>
<rect x="1003.8" y="562.8" width="32" height="32" fill="#555555" class="point"/>
<rect x="769.3" y="717.9" width="32" height="32" fill="#555555" class="point"/>
<rect x="1199.2" y="517.7" width="32" height="32" fill="#555555" class="point"/>
<rect x="1146.2" y="558.1" width="32" height="32" fill="#555555" class="point"/>
<line x1="1215.2" y1="533.7" x2="1215.2" y2="491.7" class="leader"/>
<line x1="1015.2" y1="561.7" x2="973.2" y2="561.7" class="leader"/>
<line x1="1076.1" y1="564.7" x2="1118.1" y2="580.7" class="leader"/>
<line x1="1162.2" y1="574.1" x2="1204.2" y2="558.1" class="leader"/>
<line x1="1019.8" y1="578.8" x2="977.8" y2="594.8" class="leader"/>
<line x1="928.8" y1="616.5" x2="928.8" y2="658.5" class="leader"/>
<line x1="949.8" y1="657.3" x2="991.8" y2="673.3" class="leader"/>
<line x1="856" y1="706.0" x2="856" y2="748.0" class="leader"/>
<line x1="785.3" y1="733.9" x2="743.3" y2="717.9" class="leader"/>
<line x1="395" y1="890" x2="395" y2="848" class="leader"/>
<rect x="1050.2" y="445.7" width="330" height="46" fill="#ffffff" class="label-box"/>
<text x="1065.2" y="476.7" text-anchor="start" class="label">Camp. Intermediaries</text>
<rect x="688.2" y="538.7" width="285" height="46" fill="#ffffff" class="label-box"/>
<text x="703.2" y="569.7" text-anchor="start" class="label">Camp. Proc. shift</text>
<rect x="1118.1" y="580.7" width="315" height="46" fill="#ffffff" class="label-box"/>
<text x="1133.1" y="611.7" text-anchor="start" class="label">Camp. Budget stress</text>
<rect x="1204.2" y="512.1" width="390" height="46" fill="#ffffff" class="label-box"/>
<text x="1219.2" y="543.1" text-anchor="start" class="label">Camp. Hard lobbying budg</text>
<rect x="587.8" y="594.8" width="390" height="46" fill="#ffffff" class="label-box"/>
<text x="602.8" y="625.8" text-anchor="start" class="label">Camp. Advisory lobbying </text>
<rect x="793.8" y="658.5" width="270" height="46" fill="#ffffff" class="label-box"/>
<text x="808.8" y="689.5" text-anchor="start" class="label">Camp. Shadow max</text>
<rect x="991.8" y="673.3" width="345" height="46" fill="#ffffff" class="label-box"/>
<text x="1006.8" y="704.3" text-anchor="start" class="label">Camp. Outside evasion</text>
<rect x="691" y="748.0" width="330" height="46" fill="#ffffff" class="label-box"/>
<text x="706" y="779.0" text-anchor="start" class="label">Camp. Bundle+evasion</text>
<rect x="353.3" y="671.9" width="390" height="46" fill="#ffffff" class="label-box"/>
<text x="368.3" y="702.9" text-anchor="start" class="label">Camp. Venue-shifting det</text>
<rect x="255" y="802" width="390" height="46" fill="#ffffff" class="label-box"/>
<text x="270" y="833" text-anchor="start" class="label">Camp. Full anti-capture </text>
</svg>
