<svg xmlns="http://www.w3.org/2000/svg" width="1800px" height="1100px" viewBox="0 0 1800 1100" role="img">
<title>Scenario tradeoff view</title>
<desc>Scatter plot comparing observed capture rates against total influence distortion across selected scenarios.</desc>
<style>
text { font-family: Helvetica, Arial, sans-serif; font-size: 34px; fill: #111; }
.title { font-size: 46px; font-weight: 700; }
.subtitle { font-size: 30px; fill: #444; }
.small, .tick, .label { font-size: 28px; }
.axis { stroke: #111; stroke-width: 5; fill: none; }
.grid { stroke: #d8d8d8; stroke-width: 3; fill: none; }
.segment, .point, .legend-swatch { stroke: #111; stroke-width: 2; }
.label-box { fill: #fff; stroke: #111; stroke-width: 2; }
.leader { stroke: #333; stroke-width: 2; fill: none; stroke-dasharray: 8 8; }
.threshold { stroke: #999; stroke-width: 4; fill: none; stroke-dasharray: 12 12; }
.series-primary { stroke: #111; stroke-width: 8; fill: none; }
.series-secondary { stroke: #777; stroke-width: 8; fill: none; stroke-dasharray: 24 18; }
</style>
<rect width="100%" height="100%" fill="#fff"/>
<text x="70" y="72" text-anchor="start" class="title">Scenario tradeoff view</text>
<text x="70" y="122" text-anchor="start" class="subtitle">Observed capture versus total distortion</text>
<line x1="284.1" y1="170" x2="284.1" y2="890" class="grid"/>
<text x="284.1" y="938" text-anchor="middle" class="tick">0</text>
<line x1="585.6" y1="170" x2="585.6" y2="890" class="grid"/>
<text x="585.6" y="938" text-anchor="middle" class="tick">0.25</text>
<line x1="887.1" y1="170" x2="887.1" y2="890" class="grid"/>
<text x="887.1" y="938" text-anchor="middle" class="tick">0.5</text>
<line x1="1188.5" y1="170" x2="1188.5" y2="890" class="grid"/>
<text x="1188.5" y="938" text-anchor="middle" class="tick">0.75</text>
<line x1="1490" y1="170" x2="1490" y2="890" class="grid"/>
<text x="1490" y="938" text-anchor="middle" class="tick">1</text>
<line x1="260" y1="890" x2="1490" y2="890" class="grid"/>
<text x="220" y="900" text-anchor="end" class="tick">0.0</text>
<line x1="260" y1="759.1" x2="1490" y2="759.1" class="grid"/>
<text x="220" y="769.1" text-anchor="end" class="tick">0.1</text>
<line x1="260" y1="628.2" x2="1490" y2="628.2" class="grid"/>
<text x="220" y="638.2" text-anchor="end" class="tick">0.2</text>
<line x1="260" y1="497.3" x2="1490" y2="497.3" class="grid"/>
<text x="220" y="507.3" text-anchor="end" class="tick">0.3</text>
<line x1="260" y1="366.4" x2="1490" y2="366.4" class="grid"/>
<text x="220" y="376.4" text-anchor="end" class="tick">0.4</text>
<line x1="260" y1="235.5" x2="1490" y2="235.5" class="grid"/>
<text x="220" y="245.5" text-anchor="end" class="tick">0.5</text>
<line x1="260" y1="890" x2="1490" y2="890" class="axis"/>
<line x1="260" y1="170" x2="260" y2="890" class="axis"/>
<text x="875" y="994" text-anchor="middle">Capture rate</text>
<text x="80" y="530" text-anchor="middle" transform="rotate(-90 80 530)">Total influence distortion</text>
<rect x="1342.3" y="404.6" width="24" height="24" fill="#111111" class="point"/>
<rect x="1477.6" y="341.1" width="24" height="24" fill="#111111" class="point"/>
<rect x="1478" y="354.2" width="24" height="24" fill="#111111" class="point"/>
<rect x="1340.9" y="305.8" width="24" height="24" fill="#111111" class="point"/>
<rect x="1478" y="340.7" width="24" height="24" fill="#111111" class="point"/>
<rect x="1308.1" y="343.0" width="24" height="24" fill="#111111" class="point"/>
<rect x="1137.0" y="450.3" width="24" height="24" fill="#111111" class="point"/>
<rect x="1054.0" y="431.7" width="24" height="24" fill="#111111" class="point"/>
<rect x="1147.5" y="380.3" width="24" height="24" fill="#111111" class="point"/>
<rect x="807.3" y="517.3" width="24" height="24" fill="#111111" class="point"/>
<rect x="315.6" y="691.4" width="32" height="32" fill="#555555" class="point"/>
<rect x="900.1" y="483.6" width="32" height="32" fill="#555555" class="point"/>
<line x1="1352.9" y1="317.8" x2="1352.9" y2="275.8" class="leader"/>
<line x1="1490" y1="352.7" x2="1490" y2="310.7" class="leader"/>
<line x1="1489.6" y1="353.1" x2="1489.6" y2="395.1" class="leader"/>
<line x1="1320.1" y1="355.0" x2="1320.1" y2="445.0" class="leader"/>
<line x1="1490" y1="366.2" x2="1560" y2="366.2" class="leader"/>
<line x1="1159.5" y1="392.3" x2="1159.5" y2="350.3" class="leader"/>
<line x1="1354.3" y1="416.6" x2="1354.3" y2="517" class="leader"/>
<line x1="1066.0" y1="443.7" x2="1066.0" y2="485.7" class="leader"/>
<line x1="1149.0" y1="462.3" x2="1149.0" y2="552.3" class="leader"/>
<line x1="916.1" y1="499.6" x2="916.1" y2="457.6" class="leader"/>
<line x1="819.3" y1="529.3" x2="819.3" y2="571.3" class="leader"/>
<line x1="331.6" y1="707.4" x2="331.6" y2="665.4" class="leader"/>
<rect x="1307.9" y="229.8" width="90" height="46" fill="#ffffff" class="label-box"/>
<text x="1322.9" y="260.8" text-anchor="start" class="label">Dark</text>
<rect x="1445" y="264.7" width="90" height="46" fill="#ffffff" class="label-box"/>
<text x="1460" y="295.7" text-anchor="start" class="label">Door</text>
<rect x="1444.6" y="395.1" width="90" height="46" fill="#ffffff" class="label-box"/>
<text x="1459.6" y="426.1" text-anchor="start" class="label">Rule</text>
<rect x="1267.6" y="445.0" width="105" height="46" fill="#ffffff" class="label-box"/>
<text x="1282.6" y="476.0" text-anchor="start" class="label">Inter</text>
<rect x="1560" y="346.2" width="90" height="46" fill="#ffffff" class="label-box"/>
<text x="1575" y="377.2" text-anchor="start" class="label">Camp</text>
<rect x="1114.5" y="304.3" width="90" height="46" fill="#ffffff" class="label-box"/>
<text x="1129.5" y="335.3" text-anchor="start" class="label">Proc</text>
<rect x="1335" y="517" width="90" height="46" fill="#ffffff" class="label-box"/>
<text x="1350" y="548" text-anchor="start" class="label">Open</text>
<rect x="1021.0" y="485.7" width="90" height="46" fill="#ffffff" class="label-box"/>
<text x="1036.0" y="516.7" text-anchor="start" class="label">Auth</text>
<rect x="1108.0" y="552.3" width="82" height="46" fill="#ffffff" class="label-box"/>
<text x="1123.0" y="583.3" text-anchor="start" class="label">RTD</text>
<rect x="848.6" y="411.6" width="135" height="46" fill="#ffffff" class="label-box"/>
<text x="863.6" y="442.6" text-anchor="start" class="label">Evasion</text>
<rect x="766.8" y="571.3" width="105" height="46" fill="#ffffff" class="label-box"/>
<text x="781.8" y="602.3" text-anchor="start" class="label">Venue</text>
<rect x="271.6" y="619.4" width="120" height="46" fill="#ffffff" class="label-box"/>
<text x="286.6" y="650.4" text-anchor="start" class="label">Bundle</text>
</svg>
