<svg xmlns="http://www.w3.org/2000/svg" width="1800px" height="1100px" viewBox="0 0 1800 1100" role="img">
<title>Scenario tradeoff view</title>
<desc>Scatter plot comparing observed capture rates against total influence distortion across selected scenarios.</desc>
<style>
text { font-family: Helvetica, Arial, sans-serif; font-size: 34px; fill: #111; }
.title { font-size: 46px; font-weight: 700; }
.subtitle { font-size: 30px; fill: #444; }
.small, .tick, .label { font-size: 28px; }
.point-number { font-size: 22px; fill: #fff; font-weight: 700; }
.arch-title { font-size: 30px; font-weight: 700; }
.axis { stroke: #111; stroke-width: 5; fill: none; }
.grid { stroke: #d8d8d8; stroke-width: 3; fill: none; }
.segment, .point, .legend-swatch, .arch-box { stroke: #111; stroke-width: 2; }
.warning-zone { stroke: none; }
.label-box { fill: #fff; stroke: #111; stroke-width: 2; }
.leader { stroke: #333; stroke-width: 2; fill: none; stroke-dasharray: 8 8; }
.threshold { stroke: #999; stroke-width: 4; fill: none; stroke-dasharray: 12 12; }
.series-primary { stroke: #111; stroke-width: 8; fill: none; }
.series-secondary { stroke: #777; stroke-width: 8; fill: none; stroke-dasharray: 24 18; }
</style>
<rect width="100%" height="100%" fill="#fff"/>
<text x="70" y="72" text-anchor="start" class="title">Scenario tradeoff view</text>
<text x="70" y="122" text-anchor="start" class="subtitle">Observed capture versus total distortion</text>
<line x1="284.1" y1="170" x2="284.1" y2="890" class="grid"/>
<text x="284.1" y="938" text-anchor="middle" class="tick">0</text>
<line x1="585.6" y1="170" x2="585.6" y2="890" class="grid"/>
<text x="585.6" y="938" text-anchor="middle" class="tick">0.25</text>
<line x1="887.1" y1="170" x2="887.1" y2="890" class="grid"/>
<text x="887.1" y="938" text-anchor="middle" class="tick">0.5</text>
<line x1="1188.5" y1="170" x2="1188.5" y2="890" class="grid"/>
<text x="1188.5" y="938" text-anchor="middle" class="tick">0.75</text>
<line x1="1490" y1="170" x2="1490" y2="890" class="grid"/>
<text x="1490" y="938" text-anchor="middle" class="tick">1</text>
<line x1="260" y1="890" x2="1490" y2="890" class="grid"/>
<text x="220" y="900" text-anchor="end" class="tick">0.0</text>
<line x1="260" y1="759.1" x2="1490" y2="759.1" class="grid"/>
<text x="220" y="769.1" text-anchor="end" class="tick">0.1</text>
<line x1="260" y1="628.2" x2="1490" y2="628.2" class="grid"/>
<text x="220" y="638.2" text-anchor="end" class="tick">0.2</text>
<line x1="260" y1="497.3" x2="1490" y2="497.3" class="grid"/>
<text x="220" y="507.3" text-anchor="end" class="tick">0.3</text>
<line x1="260" y1="366.4" x2="1490" y2="366.4" class="grid"/>
<text x="220" y="376.4" text-anchor="end" class="tick">0.4</text>
<line x1="260" y1="235.5" x2="1490" y2="235.5" class="grid"/>
<text x="220" y="245.5" text-anchor="end" class="tick">0.5</text>
<line x1="260" y1="890" x2="1490" y2="890" class="axis"/>
<line x1="260" y1="170" x2="260" y2="890" class="axis"/>
<text x="875" y="994" text-anchor="middle">Capture rate</text>
<text x="80" y="530" text-anchor="middle" transform="rotate(-90 80 530)">Total influence distortion</text>
<rect x="1339.0" y="407.9" width="24" height="24" fill="#111111" class="point"/>
<rect x="1477.6" y="344.7" width="24" height="24" fill="#111111" class="point"/>
<rect x="1478" y="357.6" width="24" height="24" fill="#111111" class="point"/>
<rect x="1341.3" y="308.0" width="24" height="24" fill="#111111" class="point"/>
<rect x="1478" y="342.7" width="24" height="24" fill="#111111" class="point"/>
<rect x="1308.1" y="345.3" width="24" height="24" fill="#111111" class="point"/>
<rect x="1126.4" y="455.3" width="24" height="24" fill="#111111" class="point"/>
<rect x="1061.6" y="428.5" width="24" height="24" fill="#111111" class="point"/>
<rect x="1138.9" y="386.2" width="24" height="24" fill="#111111" class="point"/>
<rect x="807.6" y="517.0" width="24" height="24" fill="#111111" class="point"/>
<rect x="300.2" y="693.2" width="32" height="32" fill="#555555" class="point"/>
<rect x="887.2" y="487.0" width="32" height="32" fill="#555555" class="point"/>
<line x1="1353.3" y1="320.0" x2="1353.3" y2="278.0" class="leader"/>
<line x1="1490" y1="354.7" x2="1490" y2="396.7" class="leader"/>
<line x1="1489.6" y1="356.7" x2="1531.6" y2="340.7" class="leader"/>
<line x1="1320.1" y1="357.3" x2="1320.1" y2="207.3" class="leader"/>
<line x1="1490" y1="369.6" x2="1490" y2="519.6" class="leader"/>
<line x1="1150.9" y1="398.2" x2="1150.9" y2="377" class="leader"/>
<line x1="1351.0" y1="419.9" x2="1281.0" y2="419.9" class="leader"/>
<line x1="1073.6" y1="440.5" x2="1073.6" y2="530.5" class="leader"/>
<line x1="1138.4" y1="467.3" x2="1138.4" y2="617.3" class="leader"/>
<line x1="903.2" y1="503.0" x2="903.2" y2="461.0" class="leader"/>
<line x1="819.6" y1="529.0" x2="819.6" y2="571.0" class="leader"/>
<line x1="316.2" y1="709.2" x2="316.2" y2="667.2" class="leader"/>
<rect x="1263.3" y="232.0" width="180" height="46" fill="#ffffff" class="label-box"/>
<text x="1278.3" y="263.0" text-anchor="start" class="label">Dark money</text>
<rect x="1370" y="396.7" width="240" height="46" fill="#ffffff" class="label-box"/>
<text x="1385" y="427.7" text-anchor="start" class="label">Revolving door</text>
<rect x="1531.6" y="294.7" width="180" height="46" fill="#ffffff" class="label-box"/>
<text x="1546.6" y="325.7" text-anchor="start" class="label">Rulemaking</text>
<rect x="1200.1" y="161.3" width="240" height="46" fill="#ffffff" class="label-box"/>
<text x="1215.1" y="192.3" text-anchor="start" class="label">Intermediaries</text>
<rect x="1415" y="519.6" width="150" height="46" fill="#ffffff" class="label-box"/>
<text x="1430" y="550.6" text-anchor="start" class="label">Campaign</text>
<rect x="1065" y="331" width="195" height="46" fill="#ffffff" class="label-box"/>
<text x="1080" y="362" text-anchor="start" class="label">Procurement</text>
<rect x="1191.0" y="399.9" width="90" height="46" fill="#ffffff" class="label-box"/>
<text x="1206.0" y="430.9" text-anchor="start" class="label">Open</text>
<rect x="961.1" y="530.5" width="225" height="46" fill="#ffffff" class="label-box"/>
<text x="976.1" y="561.5" text-anchor="start" class="label">Comment auth.</text>
<rect x="973.4" y="617.3" width="330" height="46" fill="#ffffff" class="label-box"/>
<text x="988.4" y="648.3" text-anchor="start" class="label">Real-time disclosure</text>
<rect x="835.7" y="415.0" width="135" height="46" fill="#ffffff" class="label-box"/>
<text x="850.7" y="446.0" text-anchor="start" class="label">Evasion</text>
<rect x="767.1" y="571.0" width="105" height="46" fill="#ffffff" class="label-box"/>
<text x="782.1" y="602.0" text-anchor="start" class="label">Venue</text>
<rect x="256.2" y="621.2" width="120" height="46" fill="#ffffff" class="label-box"/>
<text x="271.2" y="652.2" text-anchor="start" class="label">Bundle</text>
</svg>
