<svg xmlns="http://www.w3.org/2000/svg" width="1800px" height="1100px" viewBox="0 0 1800 1100" role="img">
<title>Sensitivity to evasion freedom</title>
<desc>Line chart showing hidden influence rising as evasion freedom increases and net transparency gain falling.</desc>
<style>
text { font-family: Helvetica, Arial, sans-serif; font-size: 34px; fill: #111; }
.title { font-size: 46px; font-weight: 700; }
.subtitle { font-size: 30px; fill: #444; }
.small, .tick, .label { font-size: 28px; }
.axis { stroke: #111; stroke-width: 5; fill: none; }
.grid { stroke: #d8d8d8; stroke-width: 3; fill: none; }
.segment, .point, .legend-swatch { stroke: #111; stroke-width: 2; }
.label-box { fill: #fff; stroke: #111; stroke-width: 2; }
.leader { stroke: #333; stroke-width: 2; fill: none; stroke-dasharray: 8 8; }
.series-primary { stroke: #111; stroke-width: 8; fill: none; }
.series-secondary { stroke: #777; stroke-width: 8; fill: none; stroke-dasharray: 24 18; }
</style>
<rect width="100%" height="100%" fill="#fff"/>
<text x="70" y="72" text-anchor="start" class="title">Sensitivity to evasion freedom</text>
<text x="70" y="122" text-anchor="start" class="subtitle">Hidden influence and transparency response</text>
<line x1="260" y1="170" x2="260" y2="890" class="grid"/>
<text x="260" y="938" text-anchor="middle" class="tick">0</text>
<line x1="670" y1="170" x2="670" y2="890" class="grid"/>
<text x="670" y="938" text-anchor="middle" class="tick">0.3</text>
<line x1="1080" y1="170" x2="1080" y2="890" class="grid"/>
<text x="1080" y="938" text-anchor="middle" class="tick">0.6</text>
<line x1="1490" y1="170" x2="1490" y2="890" class="grid"/>
<text x="1490" y="938" text-anchor="middle" class="tick">0.9</text>
<line x1="260" y1="890" x2="1490" y2="890" class="grid"/>
<text x="220" y="900" text-anchor="end" class="tick">0.0</text>
<line x1="260" y1="710" x2="1490" y2="710" class="grid"/>
<text x="220" y="720" text-anchor="end" class="tick">0.1</text>
<line x1="260" y1="530" x2="1490" y2="530" class="grid"/>
<text x="220" y="540" text-anchor="end" class="tick">0.2</text>
<line x1="260" y1="350" x2="1490" y2="350" class="grid"/>
<text x="220" y="360" text-anchor="end" class="tick">0.3</text>
<line x1="260" y1="170" x2="1490" y2="170" class="grid"/>
<text x="220" y="180" text-anchor="end" class="tick">0.4</text>
<line x1="260" y1="890" x2="1490" y2="890" class="axis"/>
<line x1="260" y1="170" x2="260" y2="890" class="axis"/>
<text x="875" y="994" text-anchor="middle">Evasion freedom</text>
<text x="80" y="530" text-anchor="middle" transform="rotate(-90 80 530)">Share / gain</text>
<polyline points="260,857.1 670,686.8 1080,490.0 1490,180.1" class="series-primary"/>
<polyline points="260,214.5 670,332.5 1080,468.4 1490,679.4" class="series-secondary"/>
<rect x="248" y="845.1" width="24" height="24" fill="#111111" class="point"/>
<rect x="658" y="674.8" width="24" height="24" fill="#111111" class="point"/>
<rect x="1068" y="478.0" width="24" height="24" fill="#111111" class="point"/>
<rect x="1478" y="168.1" width="24" height="24" fill="#111111" class="point"/>
<rect x="248" y="202.5" width="24" height="24" fill="#777777" class="point"/>
<rect x="658" y="320.5" width="24" height="24" fill="#777777" class="point"/>
<rect x="1068" y="456.4" width="24" height="24" fill="#777777" class="point"/>
<rect x="1478" y="667.4" width="24" height="24" fill="#777777" class="point"/>
<line x1="1490" y1="180.1" x2="1490" y2="222.1" class="leader"/>
<line x1="1490" y1="679.4" x2="1490" y2="637.4" class="leader"/>
<rect x="1355" y="222.1" width="270" height="46" fill="#ffffff" class="label-box"/>
<text x="1370" y="253.1" text-anchor="start" class="label">Hidden influence</text>
<rect x="1355" y="591.4" width="270" height="46" fill="#ffffff" class="label-box"/>
<text x="1370" y="622.4" text-anchor="start" class="label">Net transparency</text>
</svg>
