<svg xmlns="http://www.w3.org/2000/svg" width="1800px" height="1100px" viewBox="0 0 1800 1100" role="img">
<title>Scenario tradeoff view</title>
<desc>Scatter plot comparing observed capture rates against total influence distortion across selected scenarios.</desc>
<style>
text { font-family: Helvetica, Arial, sans-serif; font-size: 34px; fill: #111; }
.title { font-size: 46px; font-weight: 700; }
.subtitle { font-size: 30px; fill: #444; }
.small, .tick, .label { font-size: 28px; }
.axis { stroke: #111; stroke-width: 5; fill: none; }
.grid { stroke: #d8d8d8; stroke-width: 3; fill: none; }
.segment, .point, .legend-swatch { stroke: #111; stroke-width: 2; }
.label-box { fill: #fff; stroke: #111; stroke-width: 2; }
.leader { stroke: #333; stroke-width: 2; fill: none; stroke-dasharray: 8 8; }
.series-primary { stroke: #111; stroke-width: 8; fill: none; }
.series-secondary { stroke: #777; stroke-width: 8; fill: none; stroke-dasharray: 24 18; }
</style>
<rect width="100%" height="100%" fill="#fff"/>
<text x="70" y="72" text-anchor="start" class="title">Scenario tradeoff view</text>
<text x="70" y="122" text-anchor="start" class="subtitle">Observed capture versus total distortion</text>
<line x1="284.1" y1="170" x2="284.1" y2="890" class="grid"/>
<text x="284.1" y="938" text-anchor="middle" class="tick">0</text>
<line x1="585.6" y1="170" x2="585.6" y2="890" class="grid"/>
<text x="585.6" y="938" text-anchor="middle" class="tick">0.25</text>
<line x1="887.1" y1="170" x2="887.1" y2="890" class="grid"/>
<text x="887.1" y="938" text-anchor="middle" class="tick">0.5</text>
<line x1="1188.5" y1="170" x2="1188.5" y2="890" class="grid"/>
<text x="1188.5" y="938" text-anchor="middle" class="tick">0.75</text>
<line x1="1490" y1="170" x2="1490" y2="890" class="grid"/>
<text x="1490" y="938" text-anchor="middle" class="tick">1</text>
<line x1="260" y1="890" x2="1490" y2="890" class="grid"/>
<text x="220" y="900" text-anchor="end" class="tick">0.0</text>
<line x1="260" y1="759.1" x2="1490" y2="759.1" class="grid"/>
<text x="220" y="769.1" text-anchor="end" class="tick">0.1</text>
<line x1="260" y1="628.2" x2="1490" y2="628.2" class="grid"/>
<text x="220" y="638.2" text-anchor="end" class="tick">0.2</text>
<line x1="260" y1="497.3" x2="1490" y2="497.3" class="grid"/>
<text x="220" y="507.3" text-anchor="end" class="tick">0.3</text>
<line x1="260" y1="366.4" x2="1490" y2="366.4" class="grid"/>
<text x="220" y="376.4" text-anchor="end" class="tick">0.4</text>
<line x1="260" y1="235.5" x2="1490" y2="235.5" class="grid"/>
<text x="220" y="245.5" text-anchor="end" class="tick">0.5</text>
<line x1="260" y1="890" x2="1490" y2="890" class="axis"/>
<line x1="260" y1="170" x2="260" y2="890" class="axis"/>
<text x="875" y="994" text-anchor="middle">Capture rate</text>
<text x="80" y="530" text-anchor="middle" transform="rotate(-90 80 530)">Total influence distortion</text>
<rect x="1337.0" y="416.8" width="24" height="24" fill="#111111" class="point"/>
<rect x="1476.6" y="352.3" width="24" height="24" fill="#111111" class="point"/>
<rect x="1471.6" y="377.5" width="24" height="24" fill="#111111" class="point"/>
<rect x="1348" y="331.8" width="24" height="24" fill="#111111" class="point"/>
<rect x="1476.1" y="351.4" width="24" height="24" fill="#111111" class="point"/>
<rect x="1235.7" y="396.3" width="24" height="24" fill="#111111" class="point"/>
<rect x="896.2" y="535.8" width="24" height="24" fill="#111111" class="point"/>
<rect x="873.1" y="502.6" width="24" height="24" fill="#111111" class="point"/>
<rect x="685.5" y="563.3" width="24" height="24" fill="#111111" class="point"/>
<rect x="469.2" y="635.8" width="24" height="24" fill="#111111" class="point"/>
<rect x="268.1" y="727.9" width="32" height="32" fill="#555555" class="point"/>
<rect x="397.0" y="649.6" width="32" height="32" fill="#555555" class="point"/>
<line x1="1360" y1="343.8" x2="1360" y2="301.8" class="leader"/>
<line x1="1488.1" y1="363.4" x2="1488.1" y2="321.4" class="leader"/>
<line x1="1488.6" y1="364.3" x2="1530.6" y2="380.3" class="leader"/>
<line x1="1483.6" y1="389.5" x2="1483.6" y2="431.5" class="leader"/>
<line x1="1247.7" y1="408.3" x2="1247.7" y2="450.3" class="leader"/>
<line x1="1349.0" y1="428.8" x2="1349.0" y2="470.8" class="leader"/>
<line x1="885.1" y1="514.6" x2="885.1" y2="472.6" class="leader"/>
<line x1="908.2" y1="547.8" x2="908.2" y2="589.8" class="leader"/>
<line x1="697.5" y1="575.3" x2="697.5" y2="533.3" class="leader"/>
<line x1="481.2" y1="647.8" x2="481.2" y2="605.8" class="leader"/>
<line x1="413.0" y1="665.6" x2="413.0" y2="707.6" class="leader"/>
<line x1="284.1" y1="743.9" x2="284.1" y2="785.9" class="leader"/>
<rect x="1315" y="255.8" width="90" height="46" fill="#ffffff" class="label-box"/>
<text x="1330" y="286.8" text-anchor="start" class="label">Dark</text>
<rect x="1443.1" y="275.4" width="90" height="46" fill="#ffffff" class="label-box"/>
<text x="1458.1" y="306.4" text-anchor="start" class="label">Door</text>
<rect x="1530.6" y="380.3" width="90" height="46" fill="#ffffff" class="label-box"/>
<text x="1545.6" y="411.3" text-anchor="start" class="label">Rule</text>
<rect x="1438.6" y="431.5" width="90" height="46" fill="#ffffff" class="label-box"/>
<text x="1453.6" y="462.5" text-anchor="start" class="label">Camp</text>
<rect x="1195.2" y="450.3" width="105" height="46" fill="#ffffff" class="label-box"/>
<text x="1210.2" y="481.3" text-anchor="start" class="label">Inter</text>
<rect x="1304.0" y="470.8" width="90" height="46" fill="#ffffff" class="label-box"/>
<text x="1319.0" y="501.8" text-anchor="start" class="label">Open</text>
<rect x="840.1" y="426.6" width="90" height="46" fill="#ffffff" class="label-box"/>
<text x="855.1" y="457.6" text-anchor="start" class="label">Auth</text>
<rect x="867.2" y="589.8" width="82" height="46" fill="#ffffff" class="label-box"/>
<text x="882.2" y="620.8" text-anchor="start" class="label">RTD</text>
<rect x="652.5" y="487.3" width="90" height="46" fill="#ffffff" class="label-box"/>
<text x="667.5" y="518.3" text-anchor="start" class="label">Proc</text>
<rect x="428.7" y="559.8" width="105" height="46" fill="#ffffff" class="label-box"/>
<text x="443.7" y="590.8" text-anchor="start" class="label">Venue</text>
<rect x="345.5" y="707.6" width="135" height="46" fill="#ffffff" class="label-box"/>
<text x="360.5" y="738.6" text-anchor="start" class="label">Evasion</text>
<rect x="255" y="785.9" width="120" height="46" fill="#ffffff" class="label-box"/>
<text x="270" y="816.9" text-anchor="start" class="label">Bundle</text>
</svg>
