<svg xmlns="http://www.w3.org/2000/svg" width="1800px" height="1100px" viewBox="0 0 1800 1100" role="img">
<title>Channel allocation mix</title>
<desc>Stacked horizontal bars showing modeled budget allocation shares across influence channels.</desc>
<style>
text { font-family: Helvetica, Arial, sans-serif; font-size: 34px; fill: #111; }
.title { font-size: 46px; font-weight: 700; }
.subtitle { font-size: 30px; fill: #444; }
.small, .tick, .label { font-size: 28px; }
.point-number { font-size: 22px; fill: #fff; font-weight: 700; }
.arch-title { font-size: 30px; font-weight: 700; }
.axis { stroke: #111; stroke-width: 5; fill: none; }
.grid { stroke: #d8d8d8; stroke-width: 3; fill: none; }
.segment, .point, .legend-swatch, .arch-box { stroke: #111; stroke-width: 2; }
.warning-zone { stroke: none; }
.label-box { fill: #fff; stroke: #111; stroke-width: 2; }
.leader { stroke: #333; stroke-width: 2; fill: none; stroke-dasharray: 8 8; }
.threshold { stroke: #999; stroke-width: 4; fill: none; stroke-dasharray: 12 12; }
.series-primary { stroke: #111; stroke-width: 8; fill: none; }
.series-secondary { stroke: #777; stroke-width: 8; fill: none; stroke-dasharray: 24 18; }
</style>
<rect width="100%" height="100%" fill="#fff"/>
<text x="70" y="72" text-anchor="start" class="title">Channel allocation mix</text>
<text x="70" y="122" text-anchor="start" class="subtitle">Share of lobby spending by channel</text>
<line x1="440" y1="288" x2="440" y2="984" class="grid"/>
<text x="440" y="1032" text-anchor="middle" class="tick">0</text>
<line x1="700" y1="288" x2="700" y2="984" class="grid"/>
<text x="700" y="1032" text-anchor="middle" class="tick">0.25</text>
<line x1="960" y1="288" x2="960" y2="984" class="grid"/>
<text x="960" y="1032" text-anchor="middle" class="tick">0.5</text>
<line x1="1220" y1="288" x2="1220" y2="984" class="grid"/>
<text x="1220" y="1032" text-anchor="middle" class="tick">0.75</text>
<line x1="1480" y1="288" x2="1480" y2="984" class="grid"/>
<text x="1480" y="1032" text-anchor="middle" class="tick">1</text>
<text x="70" y="339" text-anchor="start">Open access</text>
<rect x="440" y="310" width="235.0" height="38" fill="#d0d0d0" class="segment"/>
<rect x="675.0" y="310" width="278.7" height="38" fill="#9e9e9e" class="segment"/>
<rect x="953.8" y="310" width="188.2" height="38" fill="#595959" class="segment"/>
<rect x="1142" y="310" width="291.2" height="38" fill="#1f4e79" class="segment"/>
<rect x="1433.2" y="310" width="46.9" height="38" fill="#000000" class="segment"/>
<text x="70" y="421" text-anchor="start">Rulemaking</text>
<rect x="440" y="392" width="130.9" height="38" fill="#d0d0d0" class="segment"/>
<rect x="570.9" y="392" width="453.8" height="38" fill="#9e9e9e" class="segment"/>
<rect x="1024.7" y="392" width="272.6" height="38" fill="#595959" class="segment"/>
<rect x="1297.3" y="392" width="182.8" height="38" fill="#1f4e79" class="segment"/>
<text x="70" y="503" text-anchor="start">Campaign</text>
<rect x="440" y="474" width="119.8" height="38" fill="#d0d0d0" class="segment"/>
<rect x="559.8" y="474" width="411.6" height="38" fill="#9e9e9e" class="segment"/>
<rect x="971.4" y="474" width="332.2" height="38" fill="#595959" class="segment"/>
<rect x="1303.6" y="474" width="176.4" height="38" fill="#1f4e79" class="segment"/>
<text x="70" y="585" text-anchor="start">Dark money</text>
<rect x="440" y="556" width="148.5" height="38" fill="#d0d0d0" class="segment"/>
<rect x="588.5" y="556" width="319.1" height="38" fill="#9e9e9e" class="segment"/>
<rect x="907.6" y="556" width="260.6" height="38" fill="#595959" class="segment"/>
<rect x="1168.2" y="556" width="262.8" height="38" fill="#1f4e79" class="segment"/>
<rect x="1431.0" y="556" width="49.1" height="38" fill="#000000" class="segment"/>
<text x="70" y="667" text-anchor="start">Intermediary</text>
<rect x="440" y="638" width="139.2" height="38" fill="#d0d0d0" class="segment"/>
<rect x="579.2" y="638" width="349.2" height="38" fill="#9e9e9e" class="segment"/>
<rect x="928.4" y="638" width="280.6" height="38" fill="#595959" class="segment"/>
<rect x="1209.0" y="638" width="226.5" height="38" fill="#1f4e79" class="segment"/>
<rect x="1435.5" y="638" width="44.4" height="38" fill="#000000" class="segment"/>
<text x="70" y="749" text-anchor="start">Vouchers</text>
<rect x="440" y="720" width="150.3" height="38" fill="#d0d0d0" class="segment"/>
<rect x="590.3" y="720" width="285.6" height="38" fill="#9e9e9e" class="segment"/>
<rect x="875.9" y="720" width="273" height="38" fill="#595959" class="segment"/>
<rect x="1148.9" y="720" width="259.2" height="38" fill="#1f4e79" class="segment"/>
<rect x="1408.0" y="720" width="72.0" height="38" fill="#000000" class="segment"/>
<text x="70" y="831" text-anchor="start">Full bundle</text>
<rect x="440" y="802" width="146.5" height="38" fill="#d0d0d0" class="segment"/>
<rect x="586.5" y="802" width="335.8" height="38" fill="#9e9e9e" class="segment"/>
<rect x="922.4" y="802" width="201.6" height="38" fill="#595959" class="segment"/>
<rect x="1123.9" y="802" width="293.3" height="38" fill="#1f4e79" class="segment"/>
<rect x="1417.2" y="802" width="62.8" height="38" fill="#000000" class="segment"/>
<text x="70" y="913" text-anchor="start">Bundle+evasion</text>
<rect x="440" y="884" width="144.1" height="38" fill="#d0d0d0" class="segment"/>
<rect x="584.1" y="884" width="348.7" height="38" fill="#9e9e9e" class="segment"/>
<rect x="932.9" y="884" width="202.5" height="38" fill="#595959" class="segment"/>
<rect x="1135.3" y="884" width="287.4" height="38" fill="#1f4e79" class="segment"/>
<rect x="1422.7" y="884" width="57.2" height="38" fill="#000000" class="segment"/>
<line x1="440" y1="290" x2="440" y2="984" class="axis"/>
<line x1="440" y1="984" x2="1480" y2="984" class="axis"/>
<text x="960" y="1076" text-anchor="middle">Share of lobby spending by channel</text>
<rect x="70" y="156" width="42" height="28" fill="#d0d0d0" class="legend-swatch"/>
<text x="126" y="180" text-anchor="start" class="small">Visible access</text>
<rect x="600" y="156" width="42" height="28" fill="#9e9e9e" class="legend-swatch"/>
<text x="656" y="180" text-anchor="start" class="small">Public/technical information</text>
<rect x="1130" y="156" width="42" height="28" fill="#595959" class="legend-swatch"/>
<text x="1186" y="180" text-anchor="start" class="small">Money channels</text>
<rect x="70" y="206" width="42" height="28" fill="#1f4e79" class="legend-swatch"/>
<text x="126" y="230" text-anchor="start" class="small">Intermediary/venue channels</text>
<rect x="600" y="206" width="42" height="28" fill="#000000" class="legend-swatch"/>
<text x="656" y="230" text-anchor="start" class="small">Defense/evasion</text>
</svg>
