<svg xmlns="http://www.w3.org/2000/svg" width="1800px" height="1100px" viewBox="0 0 1800 1100" role="img">
<title>Scenario tradeoff view</title>
<desc>Scatter plot comparing observed capture rates against total influence distortion across selected scenarios.</desc>
<style>
text { font-family: Helvetica, Arial, sans-serif; font-size: 34px; fill: #111; }
.title { font-size: 46px; font-weight: 700; }
.subtitle { font-size: 30px; fill: #444; }
.small, .tick, .label { font-size: 28px; }
.axis { stroke: #111; stroke-width: 5; fill: none; }
.grid { stroke: #d8d8d8; stroke-width: 3; fill: none; }
.segment, .point, .legend-swatch { stroke: #111; stroke-width: 2; }
.label-box { fill: #fff; stroke: #111; stroke-width: 2; }
.leader { stroke: #333; stroke-width: 2; fill: none; stroke-dasharray: 8 8; }
.series-primary { stroke: #111; stroke-width: 8; fill: none; }
.series-secondary { stroke: #777; stroke-width: 8; fill: none; stroke-dasharray: 24 18; }
</style>
<rect width="100%" height="100%" fill="#fff"/>
<text x="70" y="72" text-anchor="start" class="title">Scenario tradeoff view</text>
<text x="70" y="122" text-anchor="start" class="subtitle">Observed capture versus total distortion</text>
<line x1="284.1" y1="170" x2="284.1" y2="890" class="grid"/>
<text x="284.1" y="938" text-anchor="middle" class="tick">0</text>
<line x1="585.6" y1="170" x2="585.6" y2="890" class="grid"/>
<text x="585.6" y="938" text-anchor="middle" class="tick">0.25</text>
<line x1="887.1" y1="170" x2="887.1" y2="890" class="grid"/>
<text x="887.1" y="938" text-anchor="middle" class="tick">0.5</text>
<line x1="1188.5" y1="170" x2="1188.5" y2="890" class="grid"/>
<text x="1188.5" y="938" text-anchor="middle" class="tick">0.75</text>
<line x1="1490" y1="170" x2="1490" y2="890" class="grid"/>
<text x="1490" y="938" text-anchor="middle" class="tick">1</text>
<line x1="260" y1="890" x2="1490" y2="890" class="grid"/>
<text x="220" y="900" text-anchor="end" class="tick">0.0</text>
<line x1="260" y1="759.1" x2="1490" y2="759.1" class="grid"/>
<text x="220" y="769.1" text-anchor="end" class="tick">0.1</text>
<line x1="260" y1="628.2" x2="1490" y2="628.2" class="grid"/>
<text x="220" y="638.2" text-anchor="end" class="tick">0.2</text>
<line x1="260" y1="497.3" x2="1490" y2="497.3" class="grid"/>
<text x="220" y="507.3" text-anchor="end" class="tick">0.3</text>
<line x1="260" y1="366.4" x2="1490" y2="366.4" class="grid"/>
<text x="220" y="376.4" text-anchor="end" class="tick">0.4</text>
<line x1="260" y1="235.5" x2="1490" y2="235.5" class="grid"/>
<text x="220" y="245.5" text-anchor="end" class="tick">0.5</text>
<line x1="260" y1="890" x2="1490" y2="890" class="axis"/>
<line x1="260" y1="170" x2="260" y2="890" class="axis"/>
<text x="875" y="994" text-anchor="middle">Capture rate</text>
<text x="80" y="530" text-anchor="middle" transform="rotate(-90 80 530)">Total influence distortion</text>
<rect x="1345.4" y="410.9" width="24" height="24" fill="#111111" class="point"/>
<rect x="1476.6" y="347.0" width="24" height="24" fill="#111111" class="point"/>
<rect x="1473.1" y="374.1" width="24" height="24" fill="#111111" class="point"/>
<rect x="1349.5" y="324.1" width="24" height="24" fill="#111111" class="point"/>
<rect x="1476.1" y="346.5" width="24" height="24" fill="#111111" class="point"/>
<rect x="1285.4" y="332.9" width="24" height="24" fill="#111111" class="point"/>
<rect x="1218.4" y="420.5" width="24" height="24" fill="#111111" class="point"/>
<rect x="1051.8" y="423.9" width="24" height="24" fill="#111111" class="point"/>
<rect x="991.5" y="440.1" width="24" height="24" fill="#111111" class="point"/>
<rect x="900.7" y="478.7" width="24" height="24" fill="#111111" class="point"/>
<rect x="431.6" y="652.1" width="32" height="32" fill="#555555" class="point"/>
<rect x="850.3" y="486.1" width="32" height="32" fill="#555555" class="point"/>
<line x1="1361.5" y1="336.1" x2="1361.5" y2="294.1" class="leader"/>
<line x1="1297.4" y1="344.9" x2="1255.4" y2="344.9" class="leader"/>
<line x1="1488.1" y1="358.5" x2="1488.1" y2="316.5" class="leader"/>
<line x1="1488.6" y1="359.0" x2="1530.6" y2="375.0" class="leader"/>
<line x1="1485.1" y1="386.1" x2="1485.1" y2="428.1" class="leader"/>
<line x1="1357.4" y1="422.9" x2="1357.4" y2="464.9" class="leader"/>
<line x1="1230.4" y1="432.5" x2="1230.4" y2="474.5" class="leader"/>
<line x1="1063.8" y1="435.9" x2="1063.8" y2="393.9" class="leader"/>
<line x1="1003.5" y1="452.1" x2="1003.5" y2="494.1" class="leader"/>
<line x1="912.7" y1="490.7" x2="912.7" y2="448.7" class="leader"/>
<line x1="866.3" y1="502.1" x2="866.3" y2="544.1" class="leader"/>
<line x1="447.6" y1="668.1" x2="447.6" y2="626.1" class="leader"/>
<rect x="1316.5" y="248.1" width="90" height="46" fill="#ffffff" class="label-box"/>
<text x="1331.5" y="279.1" text-anchor="start" class="label">Dark</text>
<rect x="1150.4" y="321.9" width="105" height="46" fill="#ffffff" class="label-box"/>
<text x="1165.4" y="352.9" text-anchor="start" class="label">Inter</text>
<rect x="1443.1" y="270.5" width="90" height="46" fill="#ffffff" class="label-box"/>
<text x="1458.1" y="301.5" text-anchor="start" class="label">Door</text>
<rect x="1530.6" y="375.0" width="90" height="46" fill="#ffffff" class="label-box"/>
<text x="1545.6" y="406.0" text-anchor="start" class="label">Rule</text>
<rect x="1440.1" y="428.1" width="90" height="46" fill="#ffffff" class="label-box"/>
<text x="1455.1" y="459.1" text-anchor="start" class="label">Camp</text>
<rect x="1312.4" y="464.9" width="90" height="46" fill="#ffffff" class="label-box"/>
<text x="1327.4" y="495.9" text-anchor="start" class="label">Open</text>
<rect x="1189.4" y="474.5" width="82" height="46" fill="#ffffff" class="label-box"/>
<text x="1204.4" y="505.5" text-anchor="start" class="label">RTD</text>
<rect x="1018.8" y="347.9" width="90" height="46" fill="#ffffff" class="label-box"/>
<text x="1033.8" y="378.9" text-anchor="start" class="label">Auth</text>
<rect x="958.5" y="494.1" width="90" height="46" fill="#ffffff" class="label-box"/>
<text x="973.5" y="525.1" text-anchor="start" class="label">Proc</text>
<rect x="860.2" y="402.7" width="105" height="46" fill="#ffffff" class="label-box"/>
<text x="875.2" y="433.7" text-anchor="start" class="label">Venue</text>
<rect x="798.8" y="544.1" width="135" height="46" fill="#ffffff" class="label-box"/>
<text x="813.8" y="575.1" text-anchor="start" class="label">Evasion</text>
<rect x="387.6" y="580.1" width="120" height="46" fill="#ffffff" class="label-box"/>
<text x="402.6" y="611.1" text-anchor="start" class="label">Bundle</text>
</svg>
