<svg xmlns="http://www.w3.org/2000/svg" width="1800px" height="1100px" viewBox="0 0 1800 1100" role="img">
<title>Sensitivity to evasion freedom</title>
<desc>Line chart showing hidden influence and total influence distortion as evasion freedom changes.</desc>
<style>
text { font-family: Helvetica, Arial, sans-serif; font-size: 34px; fill: #111; }
.title { font-size: 46px; font-weight: 700; }
.subtitle { font-size: 30px; fill: #444; }
.small, .tick, .label { font-size: 28px; }
.axis { stroke: #111; stroke-width: 5; fill: none; }
.grid { stroke: #d8d8d8; stroke-width: 3; fill: none; }
.segment, .point, .legend-swatch { stroke: #111; stroke-width: 2; }
.label-box { fill: #fff; stroke: #111; stroke-width: 2; }
.leader { stroke: #333; stroke-width: 2; fill: none; stroke-dasharray: 8 8; }
.series-primary { stroke: #111; stroke-width: 8; fill: none; }
.series-secondary { stroke: #777; stroke-width: 8; fill: none; stroke-dasharray: 24 18; }
</style>
<rect width="100%" height="100%" fill="#fff"/>
<text x="70" y="72" text-anchor="start" class="title">Sensitivity to evasion freedom</text>
<text x="70" y="122" text-anchor="start" class="subtitle">Hidden influence and total distortion response</text>
<line x1="260" y1="170" x2="260" y2="890" class="grid"/>
<text x="260" y="938" text-anchor="middle" class="tick">0</text>
<line x1="670" y1="170" x2="670" y2="890" class="grid"/>
<text x="670" y="938" text-anchor="middle" class="tick">0.3</text>
<line x1="1080" y1="170" x2="1080" y2="890" class="grid"/>
<text x="1080" y="938" text-anchor="middle" class="tick">0.6</text>
<line x1="1490" y1="170" x2="1490" y2="890" class="grid"/>
<text x="1490" y="938" text-anchor="middle" class="tick">0.9</text>
<line x1="260" y1="890" x2="1490" y2="890" class="grid"/>
<text x="220" y="900" text-anchor="end" class="tick">0.0</text>
<line x1="260" y1="746" x2="1490" y2="746" class="grid"/>
<text x="220" y="756" text-anchor="end" class="tick">0.1</text>
<line x1="260" y1="602" x2="1490" y2="602" class="grid"/>
<text x="220" y="612" text-anchor="end" class="tick">0.2</text>
<line x1="260" y1="458" x2="1490" y2="458" class="grid"/>
<text x="220" y="468" text-anchor="end" class="tick">0.3</text>
<line x1="260" y1="314" x2="1490" y2="314" class="grid"/>
<text x="220" y="324" text-anchor="end" class="tick">0.4</text>
<line x1="260" y1="170" x2="1490" y2="170" class="grid"/>
<text x="220" y="180" text-anchor="end" class="tick">0.5</text>
<line x1="260" y1="890" x2="1490" y2="890" class="axis"/>
<line x1="260" y1="170" x2="260" y2="890" class="axis"/>
<text x="875" y="994" text-anchor="middle">Evasion freedom</text>
<text x="80" y="530" text-anchor="middle" transform="rotate(-90 80 530)">Share / distortion</text>
<polyline points="260,848.5 670,679.2 1080,481.9 1490,198.4" class="series-primary"/>
<polyline points="260,710.3 670,651.7 1080,556.6 1490,436.0" class="series-secondary"/>
<rect x="248" y="836.5" width="24" height="24" fill="#111111" class="point"/>
<rect x="658" y="667.2" width="24" height="24" fill="#111111" class="point"/>
<rect x="1068" y="469.9" width="24" height="24" fill="#111111" class="point"/>
<rect x="1478" y="186.4" width="24" height="24" fill="#111111" class="point"/>
<rect x="248" y="698.3" width="24" height="24" fill="#777777" class="point"/>
<rect x="658" y="639.7" width="24" height="24" fill="#777777" class="point"/>
<rect x="1068" y="544.6" width="24" height="24" fill="#777777" class="point"/>
<rect x="1478" y="424.0" width="24" height="24" fill="#777777" class="point"/>
<line x1="1490" y1="198.4" x2="1490" y2="240.4" class="leader"/>
<line x1="1490" y1="436.0" x2="1490" y2="394.0" class="leader"/>
<rect x="1355" y="240.4" width="270" height="46" fill="#ffffff" class="label-box"/>
<text x="1370" y="271.4" text-anchor="start" class="label">Hidden influence</text>
<rect x="1355" y="348.0" width="270" height="46" fill="#ffffff" class="label-box"/>
<text x="1370" y="379.0" text-anchor="start" class="label">Total distortion</text>
</svg>
