<svg xmlns="http://www.w3.org/2000/svg" width="1800px" height="1100px" viewBox="0 0 1800 1100" role="img">
<title>Scenario tradeoff view</title>
<desc>Scatter plot comparing observed capture rates against total influence distortion across selected scenarios.</desc>
<style>
text { font-family: Helvetica, Arial, sans-serif; font-size: 34px; fill: #111; }
.title { font-size: 46px; font-weight: 700; }
.subtitle { font-size: 30px; fill: #444; }
.small, .tick, .label { font-size: 28px; }
.point-number { font-size: 22px; fill: #fff; font-weight: 700; }
.arch-title { font-size: 30px; font-weight: 700; }
.axis { stroke: #111; stroke-width: 5; fill: none; }
.grid { stroke: #d8d8d8; stroke-width: 3; fill: none; }
.segment, .point, .legend-swatch, .arch-box { stroke: #111; stroke-width: 2; }
.warning-zone { stroke: none; }
.label-box { fill: #fff; stroke: #111; stroke-width: 2; }
.leader { stroke: #333; stroke-width: 2; fill: none; stroke-dasharray: 8 8; }
.threshold { stroke: #999; stroke-width: 4; fill: none; stroke-dasharray: 12 12; }
.series-primary { stroke: #111; stroke-width: 8; fill: none; }
.series-secondary { stroke: #777; stroke-width: 8; fill: none; stroke-dasharray: 24 18; }
</style>
<rect width="100%" height="100%" fill="#fff"/>
<text x="70" y="72" text-anchor="start" class="title">Scenario tradeoff view</text>
<text x="70" y="122" text-anchor="start" class="subtitle">Observed capture versus total distortion</text>
<line x1="284.1" y1="170" x2="284.1" y2="890" class="grid"/>
<text x="284.1" y="938" text-anchor="middle" class="tick">0</text>
<line x1="585.6" y1="170" x2="585.6" y2="890" class="grid"/>
<text x="585.6" y="938" text-anchor="middle" class="tick">0.25</text>
<line x1="887.1" y1="170" x2="887.1" y2="890" class="grid"/>
<text x="887.1" y="938" text-anchor="middle" class="tick">0.5</text>
<line x1="1188.5" y1="170" x2="1188.5" y2="890" class="grid"/>
<text x="1188.5" y="938" text-anchor="middle" class="tick">0.75</text>
<line x1="1490" y1="170" x2="1490" y2="890" class="grid"/>
<text x="1490" y="938" text-anchor="middle" class="tick">1</text>
<line x1="260" y1="890" x2="1490" y2="890" class="grid"/>
<text x="220" y="900" text-anchor="end" class="tick">0.0</text>
<line x1="260" y1="759.1" x2="1490" y2="759.1" class="grid"/>
<text x="220" y="769.1" text-anchor="end" class="tick">0.1</text>
<line x1="260" y1="628.2" x2="1490" y2="628.2" class="grid"/>
<text x="220" y="638.2" text-anchor="end" class="tick">0.2</text>
<line x1="260" y1="497.3" x2="1490" y2="497.3" class="grid"/>
<text x="220" y="507.3" text-anchor="end" class="tick">0.3</text>
<line x1="260" y1="366.4" x2="1490" y2="366.4" class="grid"/>
<text x="220" y="376.4" text-anchor="end" class="tick">0.4</text>
<line x1="260" y1="235.5" x2="1490" y2="235.5" class="grid"/>
<text x="220" y="245.5" text-anchor="end" class="tick">0.5</text>
<line x1="260" y1="890" x2="1490" y2="890" class="axis"/>
<line x1="260" y1="170" x2="260" y2="890" class="axis"/>
<text x="875" y="994" text-anchor="middle">Capture rate</text>
<text x="80" y="530" text-anchor="middle" transform="rotate(-90 80 530)">Total influence distortion</text>
<rect x="1340.0" y="411.0" width="24" height="24" fill="#111111" class="point"/>
<rect x="1478" y="345.6" width="24" height="24" fill="#111111" class="point"/>
<rect x="1478" y="358.3" width="24" height="24" fill="#111111" class="point"/>
<rect x="1340.9" y="309.6" width="24" height="24" fill="#111111" class="point"/>
<rect x="1478" y="342.6" width="24" height="24" fill="#111111" class="point"/>
<rect x="1298.2" y="361.0" width="24" height="24" fill="#111111" class="point"/>
<rect x="1035.2" y="488.7" width="24" height="24" fill="#111111" class="point"/>
<rect x="1025.4" y="443.6" width="24" height="24" fill="#111111" class="point"/>
<rect x="1129.9" y="396.9" width="24" height="24" fill="#111111" class="point"/>
<rect x="693.5" y="557.0" width="24" height="24" fill="#111111" class="point"/>
<rect x="280.2" y="705.5" width="32" height="32" fill="#555555" class="point"/>
<rect x="797.3" y="519.2" width="32" height="32" fill="#555555" class="point"/>
<line x1="1352.9" y1="321.6" x2="1352.9" y2="279.6" class="leader"/>
<line x1="1490" y1="354.6" x2="1490" y2="444.6" class="leader"/>
<line x1="1490" y1="357.6" x2="1515" y2="357.6" class="leader"/>
<line x1="1490" y1="370.3" x2="1490" y2="520.3" class="leader"/>
<line x1="1310.2" y1="373.0" x2="1268.2" y2="357.0" class="leader"/>
<line x1="1141.9" y1="408.9" x2="1099.9" y2="408.9" class="leader"/>
<line x1="1352.0" y1="423.0" x2="1310.0" y2="423.0" class="leader"/>
<line x1="1037.4" y1="455.6" x2="1037.4" y2="545.6" class="leader"/>
<line x1="1047.2" y1="500.7" x2="1047.2" y2="641" class="leader"/>
<line x1="813.3" y1="535.2" x2="813.3" y2="493.2" class="leader"/>
<line x1="705.5" y1="569.0" x2="705.5" y2="611.0" class="leader"/>
<line x1="296.2" y1="721.5" x2="338.2" y2="721.5" class="leader"/>
<rect x="1262.9" y="233.6" width="180" height="46" fill="#ffffff" class="label-box"/>
<text x="1277.9" y="264.6" text-anchor="start" class="label">Dark money</text>
<rect x="1370" y="444.6" width="240" height="46" fill="#ffffff" class="label-box"/>
<text x="1385" y="475.6" text-anchor="start" class="label">Revolving door</text>
<rect x="1515" y="331" width="180" height="46" fill="#ffffff" class="label-box"/>
<text x="1530" y="362" text-anchor="start" class="label">Rulemaking</text>
<rect x="1415" y="520.3" width="150" height="46" fill="#ffffff" class="label-box"/>
<text x="1430" y="551.3" text-anchor="start" class="label">Campaign</text>
<rect x="1028.2" y="311.0" width="240" height="46" fill="#ffffff" class="label-box"/>
<text x="1043.2" y="342.0" text-anchor="start" class="label">Intermediaries</text>
<rect x="904.9" y="385.9" width="195" height="46" fill="#ffffff" class="label-box"/>
<text x="919.9" y="416.9" text-anchor="start" class="label">Procurement</text>
<rect x="1220.0" y="400.0" width="90" height="46" fill="#ffffff" class="label-box"/>
<text x="1235.0" y="431.0" text-anchor="start" class="label">Open</text>
<rect x="924.9" y="545.6" width="225" height="46" fill="#ffffff" class="label-box"/>
<text x="939.9" y="576.6" text-anchor="start" class="label">Comment auth.</text>
<rect x="885" y="641" width="330" height="46" fill="#ffffff" class="label-box"/>
<text x="900" y="672" text-anchor="start" class="label">Real-time disclosure</text>
<rect x="745.8" y="447.2" width="135" height="46" fill="#ffffff" class="label-box"/>
<text x="760.8" y="478.2" text-anchor="start" class="label">Evasion</text>
<rect x="653.0" y="611.0" width="105" height="46" fill="#ffffff" class="label-box"/>
<text x="668.0" y="642.0" text-anchor="start" class="label">Venue</text>
<rect x="338.2" y="698.5" width="120" height="46" fill="#ffffff" class="label-box"/>
<text x="353.2" y="729.5" text-anchor="start" class="label">Bundle</text>
</svg>
