<svg xmlns="http://www.w3.org/2000/svg" width="1800px" height="1100px" viewBox="0 0 1800 1100" role="img">
<title>Scenario tradeoff view</title>
<desc>Scatter plot comparing observed capture rates against total influence distortion across selected scenarios.</desc>
<style>
text { font-family: Helvetica, Arial, sans-serif; font-size: 34px; fill: #111; }
.title { font-size: 46px; font-weight: 700; }
.subtitle { font-size: 30px; fill: #444; }
.small, .tick, .label { font-size: 28px; }
.axis { stroke: #111; stroke-width: 5; fill: none; }
.grid { stroke: #d8d8d8; stroke-width: 3; fill: none; }
.segment, .point, .legend-swatch { stroke: #111; stroke-width: 2; }
.label-box { fill: #fff; stroke: #111; stroke-width: 2; }
.leader { stroke: #333; stroke-width: 2; fill: none; stroke-dasharray: 8 8; }
.series-primary { stroke: #111; stroke-width: 8; fill: none; }
.series-secondary { stroke: #777; stroke-width: 8; fill: none; stroke-dasharray: 24 18; }
</style>
<rect width="100%" height="100%" fill="#fff"/>
<text x="70" y="72" text-anchor="start" class="title">Scenario tradeoff view</text>
<text x="70" y="122" text-anchor="start" class="subtitle">Observed capture versus total distortion</text>
<line x1="284.1" y1="170" x2="284.1" y2="890" class="grid"/>
<text x="284.1" y="938" text-anchor="middle" class="tick">0</text>
<line x1="585.6" y1="170" x2="585.6" y2="890" class="grid"/>
<text x="585.6" y="938" text-anchor="middle" class="tick">0.25</text>
<line x1="887.1" y1="170" x2="887.1" y2="890" class="grid"/>
<text x="887.1" y="938" text-anchor="middle" class="tick">0.5</text>
<line x1="1188.5" y1="170" x2="1188.5" y2="890" class="grid"/>
<text x="1188.5" y="938" text-anchor="middle" class="tick">0.75</text>
<line x1="1490" y1="170" x2="1490" y2="890" class="grid"/>
<text x="1490" y="938" text-anchor="middle" class="tick">1</text>
<line x1="260" y1="890" x2="1490" y2="890" class="grid"/>
<text x="220" y="900" text-anchor="end" class="tick">0.0</text>
<line x1="260" y1="759.1" x2="1490" y2="759.1" class="grid"/>
<text x="220" y="769.1" text-anchor="end" class="tick">0.1</text>
<line x1="260" y1="628.2" x2="1490" y2="628.2" class="grid"/>
<text x="220" y="638.2" text-anchor="end" class="tick">0.2</text>
<line x1="260" y1="497.3" x2="1490" y2="497.3" class="grid"/>
<text x="220" y="507.3" text-anchor="end" class="tick">0.3</text>
<line x1="260" y1="366.4" x2="1490" y2="366.4" class="grid"/>
<text x="220" y="376.4" text-anchor="end" class="tick">0.4</text>
<line x1="260" y1="235.5" x2="1490" y2="235.5" class="grid"/>
<text x="220" y="245.5" text-anchor="end" class="tick">0.5</text>
<line x1="260" y1="890" x2="1490" y2="890" class="axis"/>
<line x1="260" y1="170" x2="260" y2="890" class="axis"/>
<text x="875" y="994" text-anchor="middle">Capture rate</text>
<text x="80" y="530" text-anchor="middle" transform="rotate(-90 80 530)">Total influence distortion</text>
<rect x="1331" y="419.6" width="24" height="24" fill="#111111" class="point"/>
<rect x="1476.9" y="352.5" width="24" height="24" fill="#111111" class="point"/>
<rect x="1469.0" y="381.1" width="24" height="24" fill="#111111" class="point"/>
<rect x="1348" y="333.2" width="24" height="24" fill="#111111" class="point"/>
<rect x="1476.1" y="352.7" width="24" height="24" fill="#111111" class="point"/>
<rect x="1231.5" y="397.2" width="24" height="24" fill="#111111" class="point"/>
<rect x="886.8" y="538.7" width="24" height="24" fill="#111111" class="point"/>
<rect x="881.1" y="500.3" width="24" height="24" fill="#111111" class="point"/>
<rect x="662.6" y="570.4" width="24" height="24" fill="#111111" class="point"/>
<rect x="459.4" y="640.3" width="24" height="24" fill="#111111" class="point"/>
<rect x="268.1" y="729.5" width="32" height="32" fill="#555555" class="point"/>
<rect x="396.3" y="649.4" width="32" height="32" fill="#555555" class="point"/>
<line x1="1360" y1="345.2" x2="1360" y2="303.2" class="leader"/>
<line x1="1488.9" y1="364.5" x2="1488.9" y2="322.5" class="leader"/>
<line x1="1488.1" y1="364.7" x2="1530.1" y2="380.7" class="leader"/>
<line x1="1481.0" y1="393.1" x2="1481.0" y2="435.1" class="leader"/>
<line x1="1243.5" y1="409.2" x2="1243.5" y2="451.2" class="leader"/>
<line x1="1343" y1="431.6" x2="1343" y2="473.6" class="leader"/>
<line x1="893.1" y1="512.3" x2="893.1" y2="470.3" class="leader"/>
<line x1="898.8" y1="550.7" x2="898.8" y2="592.7" class="leader"/>
<line x1="674.6" y1="582.4" x2="674.6" y2="540.4" class="leader"/>
<line x1="471.4" y1="652.3" x2="471.4" y2="610.3" class="leader"/>
<line x1="412.3" y1="665.4" x2="412.3" y2="707.4" class="leader"/>
<line x1="284.1" y1="745.5" x2="284.1" y2="787.5" class="leader"/>
<rect x="1315" y="257.2" width="90" height="46" fill="#ffffff" class="label-box"/>
<text x="1330" y="288.2" text-anchor="start" class="label">Dark</text>
<rect x="1443.9" y="276.5" width="90" height="46" fill="#ffffff" class="label-box"/>
<text x="1458.9" y="307.5" text-anchor="start" class="label">Rule</text>
<rect x="1530.1" y="380.7" width="90" height="46" fill="#ffffff" class="label-box"/>
<text x="1545.1" y="411.7" text-anchor="start" class="label">Door</text>
<rect x="1436.0" y="435.1" width="90" height="46" fill="#ffffff" class="label-box"/>
<text x="1451.0" y="466.1" text-anchor="start" class="label">Camp</text>
<rect x="1191.0" y="451.2" width="105" height="46" fill="#ffffff" class="label-box"/>
<text x="1206.0" y="482.2" text-anchor="start" class="label">Inter</text>
<rect x="1298" y="473.6" width="90" height="46" fill="#ffffff" class="label-box"/>
<text x="1313" y="504.6" text-anchor="start" class="label">Open</text>
<rect x="848.1" y="424.3" width="90" height="46" fill="#ffffff" class="label-box"/>
<text x="863.1" y="455.3" text-anchor="start" class="label">Auth</text>
<rect x="857.8" y="592.7" width="82" height="46" fill="#ffffff" class="label-box"/>
<text x="872.8" y="623.7" text-anchor="start" class="label">RTD</text>
<rect x="629.6" y="494.4" width="90" height="46" fill="#ffffff" class="label-box"/>
<text x="644.6" y="525.4" text-anchor="start" class="label">Proc</text>
<rect x="418.9" y="564.3" width="105" height="46" fill="#ffffff" class="label-box"/>
<text x="433.9" y="595.3" text-anchor="start" class="label">Venue</text>
<rect x="344.8" y="707.4" width="135" height="46" fill="#ffffff" class="label-box"/>
<text x="359.8" y="738.4" text-anchor="start" class="label">Evasion</text>
<rect x="255" y="787.5" width="120" height="46" fill="#ffffff" class="label-box"/>
<text x="270" y="818.5" text-anchor="start" class="label">Bundle</text>
</svg>
