<svg xmlns="http://www.w3.org/2000/svg" width="1800px" height="1100px" viewBox="0 0 1800 1100" role="img">
<title>Scenario tradeoff view</title>
<desc>Scatter plot comparing observed capture rates against total influence distortion across selected scenarios.</desc>
<style>
text { font-family: Helvetica, Arial, sans-serif; font-size: 34px; fill: #111; }
.title { font-size: 46px; font-weight: 700; }
.subtitle { font-size: 30px; fill: #444; }
.small, .tick, .label { font-size: 28px; }
.axis { stroke: #111; stroke-width: 5; fill: none; }
.grid { stroke: #d8d8d8; stroke-width: 3; fill: none; }
.segment, .point, .legend-swatch { stroke: #111; stroke-width: 2; }
.label-box { fill: #fff; stroke: #111; stroke-width: 2; }
.leader { stroke: #333; stroke-width: 2; fill: none; stroke-dasharray: 8 8; }
.threshold { stroke: #999; stroke-width: 4; fill: none; stroke-dasharray: 12 12; }
.series-primary { stroke: #111; stroke-width: 8; fill: none; }
.series-secondary { stroke: #777; stroke-width: 8; fill: none; stroke-dasharray: 24 18; }
</style>
<rect width="100%" height="100%" fill="#fff"/>
<text x="70" y="72" text-anchor="start" class="title">Scenario tradeoff view</text>
<text x="70" y="122" text-anchor="start" class="subtitle">Observed capture versus total distortion</text>
<line x1="284.1" y1="170" x2="284.1" y2="890" class="grid"/>
<text x="284.1" y="938" text-anchor="middle" class="tick">0</text>
<line x1="585.6" y1="170" x2="585.6" y2="890" class="grid"/>
<text x="585.6" y="938" text-anchor="middle" class="tick">0.25</text>
<line x1="887.1" y1="170" x2="887.1" y2="890" class="grid"/>
<text x="887.1" y="938" text-anchor="middle" class="tick">0.5</text>
<line x1="1188.5" y1="170" x2="1188.5" y2="890" class="grid"/>
<text x="1188.5" y="938" text-anchor="middle" class="tick">0.75</text>
<line x1="1490" y1="170" x2="1490" y2="890" class="grid"/>
<text x="1490" y="938" text-anchor="middle" class="tick">1</text>
<line x1="260" y1="890" x2="1490" y2="890" class="grid"/>
<text x="220" y="900" text-anchor="end" class="tick">0.0</text>
<line x1="260" y1="759.1" x2="1490" y2="759.1" class="grid"/>
<text x="220" y="769.1" text-anchor="end" class="tick">0.1</text>
<line x1="260" y1="628.2" x2="1490" y2="628.2" class="grid"/>
<text x="220" y="638.2" text-anchor="end" class="tick">0.2</text>
<line x1="260" y1="497.3" x2="1490" y2="497.3" class="grid"/>
<text x="220" y="507.3" text-anchor="end" class="tick">0.3</text>
<line x1="260" y1="366.4" x2="1490" y2="366.4" class="grid"/>
<text x="220" y="376.4" text-anchor="end" class="tick">0.4</text>
<line x1="260" y1="235.5" x2="1490" y2="235.5" class="grid"/>
<text x="220" y="245.5" text-anchor="end" class="tick">0.5</text>
<line x1="260" y1="890" x2="1490" y2="890" class="axis"/>
<line x1="260" y1="170" x2="260" y2="890" class="axis"/>
<text x="875" y="994" text-anchor="middle">Capture rate</text>
<text x="80" y="530" text-anchor="middle" transform="rotate(-90 80 530)">Total influence distortion</text>
<rect x="1343.1" y="408.6" width="24" height="24" fill="#111111" class="point"/>
<rect x="1478" y="344.5" width="24" height="24" fill="#111111" class="point"/>
<rect x="1477.6" y="368.4" width="24" height="24" fill="#111111" class="point"/>
<rect x="1341.6" y="309.7" width="24" height="24" fill="#111111" class="point"/>
<rect x="1478" y="342.2" width="24" height="24" fill="#111111" class="point"/>
<rect x="1307.7" y="346.5" width="24" height="24" fill="#111111" class="point"/>
<rect x="1123.8" y="455.3" width="24" height="24" fill="#111111" class="point"/>
<rect x="1051" y="436.2" width="24" height="24" fill="#111111" class="point"/>
<rect x="1134.7" y="388.3" width="24" height="24" fill="#111111" class="point"/>
<rect x="780.9" y="528.5" width="24" height="24" fill="#111111" class="point"/>
<rect x="298.6" y="696.9" width="32" height="32" fill="#555555" class="point"/>
<rect x="863.6" y="499.1" width="32" height="32" fill="#555555" class="point"/>
<line x1="1353.6" y1="321.7" x2="1353.6" y2="279.7" class="leader"/>
<line x1="1490" y1="354.2" x2="1490" y2="312.2" class="leader"/>
<line x1="1490" y1="356.5" x2="1490" y2="398.5" class="leader"/>
<line x1="1319.7" y1="358.5" x2="1277.7" y2="358.5" class="leader"/>
<line x1="1489.6" y1="380.4" x2="1531.6" y2="364.4" class="leader"/>
<line x1="1146.7" y1="400.3" x2="1104.7" y2="400.3" class="leader"/>
<line x1="1355.1" y1="420.6" x2="1355.1" y2="462.6" class="leader"/>
<line x1="1063" y1="448.2" x2="1063" y2="490.2" class="leader"/>
<line x1="1135.8" y1="467.3" x2="1177.8" y2="467.3" class="leader"/>
<line x1="879.6" y1="515.1" x2="879.6" y2="473.1" class="leader"/>
<line x1="792.9" y1="540.5" x2="792.9" y2="582.5" class="leader"/>
<line x1="314.6" y1="712.9" x2="356.6" y2="712.9" class="leader"/>
<rect x="1308.6" y="233.7" width="90" height="46" fill="#ffffff" class="label-box"/>
<text x="1323.6" y="264.7" text-anchor="start" class="label">Dark</text>
<rect x="1445" y="266.2" width="90" height="46" fill="#ffffff" class="label-box"/>
<text x="1460" y="297.2" text-anchor="start" class="label">Door</text>
<rect x="1445" y="398.5" width="90" height="46" fill="#ffffff" class="label-box"/>
<text x="1460" y="429.5" text-anchor="start" class="label">Rule</text>
<rect x="1172.7" y="335.5" width="105" height="46" fill="#ffffff" class="label-box"/>
<text x="1187.7" y="366.5" text-anchor="start" class="label">Inter</text>
<rect x="1531.6" y="318.4" width="90" height="46" fill="#ffffff" class="label-box"/>
<text x="1546.6" y="349.4" text-anchor="start" class="label">Camp</text>
<rect x="1014.7" y="377.3" width="90" height="46" fill="#ffffff" class="label-box"/>
<text x="1029.7" y="408.3" text-anchor="start" class="label">Proc</text>
<rect x="1310.1" y="462.6" width="90" height="46" fill="#ffffff" class="label-box"/>
<text x="1325.1" y="493.6" text-anchor="start" class="label">Open</text>
<rect x="1018" y="490.2" width="90" height="46" fill="#ffffff" class="label-box"/>
<text x="1033" y="521.2" text-anchor="start" class="label">Auth</text>
<rect x="1177.8" y="444.3" width="82" height="46" fill="#ffffff" class="label-box"/>
<text x="1192.8" y="475.3" text-anchor="start" class="label">RTD</text>
<rect x="812.1" y="427.1" width="135" height="46" fill="#ffffff" class="label-box"/>
<text x="827.1" y="458.1" text-anchor="start" class="label">Evasion</text>
<rect x="740.4" y="582.5" width="105" height="46" fill="#ffffff" class="label-box"/>
<text x="755.4" y="613.5" text-anchor="start" class="label">Venue</text>
<rect x="356.6" y="689.9" width="120" height="46" fill="#ffffff" class="label-box"/>
<text x="371.6" y="720.9" text-anchor="start" class="label">Bundle</text>
</svg>
