<svg xmlns="http://www.w3.org/2000/svg" width="1800px" height="1100px" viewBox="0 0 1800 1100" role="img">
<title>Scenario tradeoff view</title>
<desc>Scatter plot comparing observed capture rates against total influence distortion across selected scenarios.</desc>
<style>
text { font-family: Helvetica, Arial, sans-serif; font-size: 34px; fill: #111; }
.title { font-size: 46px; font-weight: 700; }
.subtitle { font-size: 30px; fill: #444; }
.small, .tick, .label { font-size: 28px; }
.axis { stroke: #111; stroke-width: 5; fill: none; }
.grid { stroke: #d8d8d8; stroke-width: 3; fill: none; }
.segment, .point, .legend-swatch { stroke: #111; stroke-width: 2; }
.label-box { fill: #fff; stroke: #111; stroke-width: 2; }
.leader { stroke: #333; stroke-width: 2; fill: none; stroke-dasharray: 8 8; }
.series-primary { stroke: #111; stroke-width: 8; fill: none; }
.series-secondary { stroke: #777; stroke-width: 8; fill: none; stroke-dasharray: 24 18; }
</style>
<rect width="100%" height="100%" fill="#fff"/>
<text x="70" y="72" text-anchor="start" class="title">Scenario tradeoff view</text>
<text x="70" y="122" text-anchor="start" class="subtitle">Observed capture versus total distortion</text>
<line x1="284.1" y1="170" x2="284.1" y2="890" class="grid"/>
<text x="284.1" y="938" text-anchor="middle" class="tick">0</text>
<line x1="585.6" y1="170" x2="585.6" y2="890" class="grid"/>
<text x="585.6" y="938" text-anchor="middle" class="tick">0.25</text>
<line x1="887.1" y1="170" x2="887.1" y2="890" class="grid"/>
<text x="887.1" y="938" text-anchor="middle" class="tick">0.5</text>
<line x1="1188.5" y1="170" x2="1188.5" y2="890" class="grid"/>
<text x="1188.5" y="938" text-anchor="middle" class="tick">0.75</text>
<line x1="1490" y1="170" x2="1490" y2="890" class="grid"/>
<text x="1490" y="938" text-anchor="middle" class="tick">1</text>
<line x1="260" y1="890" x2="1490" y2="890" class="grid"/>
<text x="220" y="900" text-anchor="end" class="tick">0.0</text>
<line x1="260" y1="759.1" x2="1490" y2="759.1" class="grid"/>
<text x="220" y="769.1" text-anchor="end" class="tick">0.1</text>
<line x1="260" y1="628.2" x2="1490" y2="628.2" class="grid"/>
<text x="220" y="638.2" text-anchor="end" class="tick">0.2</text>
<line x1="260" y1="497.3" x2="1490" y2="497.3" class="grid"/>
<text x="220" y="507.3" text-anchor="end" class="tick">0.3</text>
<line x1="260" y1="366.4" x2="1490" y2="366.4" class="grid"/>
<text x="220" y="376.4" text-anchor="end" class="tick">0.4</text>
<line x1="260" y1="235.5" x2="1490" y2="235.5" class="grid"/>
<text x="220" y="245.5" text-anchor="end" class="tick">0.5</text>
<line x1="260" y1="890" x2="1490" y2="890" class="axis"/>
<line x1="260" y1="170" x2="260" y2="890" class="axis"/>
<text x="875" y="994" text-anchor="middle">Capture rate</text>
<text x="80" y="530" text-anchor="middle" transform="rotate(-90 80 530)">Total influence distortion</text>
<rect x="1343.4" y="408.6" width="24" height="24" fill="#111111" class="point"/>
<rect x="1476.6" y="344.8" width="24" height="24" fill="#111111" class="point"/>
<rect x="1474.3" y="369.3" width="24" height="24" fill="#111111" class="point"/>
<rect x="1351.0" y="306.2" width="24" height="24" fill="#111111" class="point"/>
<rect x="1476.1" y="343.0" width="24" height="24" fill="#111111" class="point"/>
<rect x="1271.9" y="357.0" width="24" height="24" fill="#111111" class="point"/>
<rect x="1089.8" y="464.1" width="24" height="24" fill="#111111" class="point"/>
<rect x="953.4" y="465.5" width="24" height="24" fill="#111111" class="point"/>
<rect x="990.7" y="435" width="24" height="24" fill="#111111" class="point"/>
<rect x="699.5" y="548.9" width="24" height="24" fill="#111111" class="point"/>
<rect x="294.5" y="698.1" width="32" height="32" fill="#555555" class="point"/>
<rect x="776.5" y="520.2" width="32" height="32" fill="#555555" class="point"/>
<line x1="1363.0" y1="318.2" x2="1363.0" y2="276.2" class="leader"/>
<line x1="1488.1" y1="355.0" x2="1488.1" y2="313.0" class="leader"/>
<line x1="1488.6" y1="356.8" x2="1530.6" y2="356.8" class="leader"/>
<line x1="1283.9" y1="369.0" x2="1283.9" y2="411.0" class="leader"/>
<line x1="1486.3" y1="381.3" x2="1486.3" y2="423.3" class="leader"/>
<line x1="1355.4" y1="420.6" x2="1355.4" y2="462.6" class="leader"/>
<line x1="1002.7" y1="447" x2="1002.7" y2="405" class="leader"/>
<line x1="1101.8" y1="476.1" x2="1101.8" y2="518.1" class="leader"/>
<line x1="965.4" y1="477.5" x2="965.4" y2="519.5" class="leader"/>
<line x1="792.5" y1="536.2" x2="792.5" y2="494.2" class="leader"/>
<line x1="711.5" y1="560.9" x2="711.5" y2="602.9" class="leader"/>
<line x1="310.5" y1="714.1" x2="352.5" y2="714.1" class="leader"/>
<rect x="1318.0" y="230.2" width="90" height="46" fill="#ffffff" class="label-box"/>
<text x="1333.0" y="261.2" text-anchor="start" class="label">Dark</text>
<rect x="1443.1" y="267.0" width="90" height="46" fill="#ffffff" class="label-box"/>
<text x="1458.1" y="298.0" text-anchor="start" class="label">Door</text>
<rect x="1530.6" y="333.8" width="90" height="46" fill="#ffffff" class="label-box"/>
<text x="1545.6" y="364.8" text-anchor="start" class="label">Rule</text>
<rect x="1231.4" y="411.0" width="105" height="46" fill="#ffffff" class="label-box"/>
<text x="1246.4" y="442.0" text-anchor="start" class="label">Inter</text>
<rect x="1441.3" y="423.3" width="90" height="46" fill="#ffffff" class="label-box"/>
<text x="1456.3" y="454.3" text-anchor="start" class="label">Camp</text>
<rect x="1310.4" y="462.6" width="90" height="46" fill="#ffffff" class="label-box"/>
<text x="1325.4" y="493.6" text-anchor="start" class="label">Open</text>
<rect x="957.7" y="359" width="90" height="46" fill="#ffffff" class="label-box"/>
<text x="972.7" y="390" text-anchor="start" class="label">Proc</text>
<rect x="1060.8" y="518.1" width="82" height="46" fill="#ffffff" class="label-box"/>
<text x="1075.8" y="549.1" text-anchor="start" class="label">RTD</text>
<rect x="920.4" y="519.5" width="90" height="46" fill="#ffffff" class="label-box"/>
<text x="935.4" y="550.5" text-anchor="start" class="label">Auth</text>
<rect x="725.0" y="448.2" width="135" height="46" fill="#ffffff" class="label-box"/>
<text x="740.0" y="479.2" text-anchor="start" class="label">Evasion</text>
<rect x="659.0" y="602.9" width="105" height="46" fill="#ffffff" class="label-box"/>
<text x="674.0" y="633.9" text-anchor="start" class="label">Venue</text>
<rect x="352.5" y="691.1" width="120" height="46" fill="#ffffff" class="label-box"/>
<text x="367.5" y="722.1" text-anchor="start" class="label">Bundle</text>
</svg>
