<svg xmlns="http://www.w3.org/2000/svg" width="1800px" height="1100px" viewBox="0 0 1800 1100" role="img">
<title>Apparent success versus substitution failure</title>
<desc>Scatter plot comparing observed capture deltas with total influence distortion deltas for flagged audit rows.</desc>
<style>
text { font-family: Helvetica, Arial, sans-serif; font-size: 34px; fill: #111; }
.title { font-size: 46px; font-weight: 700; }
.subtitle { font-size: 30px; fill: #444; }
.small, .tick, .label { font-size: 28px; }
.axis { stroke: #111; stroke-width: 5; fill: none; }
.grid { stroke: #d8d8d8; stroke-width: 3; fill: none; }
.segment, .point, .legend-swatch { stroke: #111; stroke-width: 2; }
.label-box { fill: #fff; stroke: #111; stroke-width: 2; }
.leader { stroke: #333; stroke-width: 2; fill: none; stroke-dasharray: 8 8; }
.threshold { stroke: #999; stroke-width: 4; fill: none; stroke-dasharray: 12 12; }
.series-primary { stroke: #111; stroke-width: 8; fill: none; }
.series-secondary { stroke: #777; stroke-width: 8; fill: none; stroke-dasharray: 24 18; }
</style>
<rect width="100%" height="100%" fill="#fff"/>
<text x="70" y="72" text-anchor="start" class="title">Apparent success versus substitution failure</text>
<text x="70" y="122" text-anchor="start" class="subtitle">Capture change against total-distortion change</text>
<line x1="260" y1="170" x2="260" y2="890" class="grid"/>
<text x="260" y="938" text-anchor="middle" class="tick">-1</text>
<line x1="506" y1="170" x2="506" y2="890" class="grid"/>
<text x="506" y="938" text-anchor="middle" class="tick">-0.75</text>
<line x1="752" y1="170" x2="752" y2="890" class="grid"/>
<text x="752" y="938" text-anchor="middle" class="tick">-0.5</text>
<line x1="998" y1="170" x2="998" y2="890" class="grid"/>
<text x="998" y="938" text-anchor="middle" class="tick">-0.25</text>
<line x1="1244" y1="170" x2="1244" y2="890" class="grid"/>
<text x="1244" y="938" text-anchor="middle" class="tick">0</text>
<line x1="1490" y1="170" x2="1490" y2="890" class="grid"/>
<text x="1490" y="938" text-anchor="middle" class="tick">0.25</text>
<line x1="260" y1="890" x2="1490" y2="890" class="grid"/>
<text x="220" y="900" text-anchor="end" class="tick">-0.2</text>
<line x1="260" y1="746" x2="1490" y2="746" class="grid"/>
<text x="220" y="756" text-anchor="end" class="tick">-0.1</text>
<line x1="260" y1="602" x2="1490" y2="602" class="grid"/>
<text x="220" y="612" text-anchor="end" class="tick">0.0</text>
<line x1="260" y1="458" x2="1490" y2="458" class="grid"/>
<text x="220" y="468" text-anchor="end" class="tick">0.1</text>
<line x1="260" y1="314" x2="1490" y2="314" class="grid"/>
<text x="220" y="324" text-anchor="end" class="tick">0.2</text>
<line x1="260" y1="170" x2="1490" y2="170" class="grid"/>
<text x="220" y="180" text-anchor="end" class="tick">0.3</text>
<line x1="260" y1="890" x2="1490" y2="890" class="axis"/>
<line x1="260" y1="170" x2="260" y2="890" class="axis"/>
<text x="875" y="994" text-anchor="middle">Observed capture delta</text>
<text x="80" y="530" text-anchor="middle" transform="rotate(-90 80 530)">Total distortion delta</text>
<line x1="1244" y1="170" x2="1244" y2="890" class="threshold"/>
<line x1="260" y1="602" x2="1490" y2="602" class="threshold"/>
<text x="1222" y="210" text-anchor="end" class="small">visible capture lower</text>
<text x="1266" y="582" text-anchor="start" class="small">distortion higher</text>
<rect x="998.3" y="532.3" width="32" height="32" fill="#555555" class="point"/>
<rect x="912.8" y="598.7" width="32" height="32" fill="#555555" class="point"/>
<rect x="870.4" y="677.3" width="32" height="32" fill="#555555" class="point"/>
<rect x="1055.2" y="549.1" width="32" height="32" fill="#555555" class="point"/>
<rect x="393.5" y="874" width="32" height="32" fill="#555555" class="point"/>
<rect x="999.5" y="544.1" width="32" height="32" fill="#555555" class="point"/>
<rect x="853.5" y="673.0" width="32" height="32" fill="#555555" class="point"/>
<rect x="1012.8" y="555.8" width="32" height="32" fill="#555555" class="point"/>
<rect x="910.1" y="642.9" width="32" height="32" fill="#555555" class="point"/>
<rect x="919.6" y="651.4" width="32" height="32" fill="#555555" class="point"/>
<line x1="1014.3" y1="548.3" x2="1014.3" y2="506.3" class="leader"/>
<line x1="1015.5" y1="560.1" x2="1015.5" y2="439" class="leader"/>
<line x1="1071.2" y1="565.1" x2="1071.2" y2="641" class="leader"/>
<line x1="1028.8" y1="571.8" x2="1028.8" y2="721.8" class="leader"/>
<line x1="928.8" y1="614.7" x2="886.8" y2="614.7" class="leader"/>
<line x1="926.1" y1="658.9" x2="926.1" y2="808.9" class="leader"/>
<line x1="935.6" y1="667.4" x2="785.6" y2="683.4" class="leader"/>
<line x1="869.5" y1="689.0" x2="869.5" y2="315" class="leader"/>
<line x1="886.4" y1="693.3" x2="765" y2="563" class="leader"/>
<line x1="409.5" y1="890" x2="409.5" y2="848" class="leader"/>
<rect x="819.3" y="460.3" width="390" height="46" fill="#ffffff" class="label-box"/>
<text x="834.3" y="491.3" text-anchor="start" class="label">Camp. Procurement modifi</text>
<rect x="885" y="393" width="285" height="46" fill="#ffffff" class="label-box"/>
<text x="900" y="424" text-anchor="start" class="label">Camp. Proc. shift</text>
<rect x="975" y="641" width="315" height="46" fill="#ffffff" class="label-box"/>
<text x="990" y="672" text-anchor="start" class="label">Camp. Budget stress</text>
<rect x="833.8" y="721.8" width="390" height="46" fill="#ffffff" class="label-box"/>
<text x="848.8" y="752.8" text-anchor="start" class="label">Camp. Advisory lobbying </text>
<rect x="616.8" y="591.7" width="270" height="46" fill="#ffffff" class="label-box"/>
<text x="631.8" y="622.7" text-anchor="start" class="label">Camp. Shadow max</text>
<rect x="731.1" y="808.9" width="390" height="46" fill="#ffffff" class="label-box"/>
<text x="746.1" y="839.9" text-anchor="start" class="label">Camp. Opaque network sub</text>
<rect x="440.6" y="683.4" width="345" height="46" fill="#ffffff" class="label-box"/>
<text x="455.6" y="714.4" text-anchor="start" class="label">Camp. Outside evasion</text>
<rect x="705" y="269" width="390" height="46" fill="#ffffff" class="label-box"/>
<text x="720" y="300" text-anchor="start" class="label">Camp. Public-finance dar</text>
<rect x="435" y="517" width="330" height="46" fill="#ffffff" class="label-box"/>
<text x="450" y="548" text-anchor="start" class="label">Camp. Bundle+evasion</text>
<rect x="255" y="802" width="390" height="46" fill="#ffffff" class="label-box"/>
<text x="270" y="833" text-anchor="start" class="label">Camp. Full anti-capture </text>
</svg>
