<svg xmlns="http://www.w3.org/2000/svg" width="1800px" height="1100px" viewBox="0 0 1800 1100" role="img">
<title>Interaction tradeoff view</title>
<desc>Scatter plot comparing hidden influence against total influence distortion after reforms bind.</desc>
<style>
text { font-family: Helvetica, Arial, sans-serif; font-size: 34px; fill: #111; }
.title { font-size: 46px; font-weight: 700; }
.subtitle { font-size: 30px; fill: #444; }
.small, .tick, .label { font-size: 28px; }
.axis { stroke: #111; stroke-width: 5; fill: none; }
.grid { stroke: #d8d8d8; stroke-width: 3; fill: none; }
.segment, .point, .legend-swatch { stroke: #111; stroke-width: 2; }
.label-box { fill: #fff; stroke: #111; stroke-width: 2; }
.leader { stroke: #333; stroke-width: 2; fill: none; stroke-dasharray: 8 8; }
.series-primary { stroke: #111; stroke-width: 8; fill: none; }
.series-secondary { stroke: #777; stroke-width: 8; fill: none; stroke-dasharray: 24 18; }
</style>
<rect width="100%" height="100%" fill="#fff"/>
<text x="70" y="72" text-anchor="start" class="title">Interaction tradeoff view</text>
<text x="70" y="122" text-anchor="start" class="subtitle">Hidden influence versus total distortion</text>
<line x1="260" y1="170" x2="260" y2="890" class="grid"/>
<text x="260" y="938" text-anchor="middle" class="tick">0</text>
<line x1="567.5" y1="170" x2="567.5" y2="890" class="grid"/>
<text x="567.5" y="938" text-anchor="middle" class="tick">0.1</text>
<line x1="875" y1="170" x2="875" y2="890" class="grid"/>
<text x="875" y="938" text-anchor="middle" class="tick">0.2</text>
<line x1="1182.5" y1="170" x2="1182.5" y2="890" class="grid"/>
<text x="1182.5" y="938" text-anchor="middle" class="tick">0.3</text>
<line x1="1490" y1="170" x2="1490" y2="890" class="grid"/>
<text x="1490" y="938" text-anchor="middle" class="tick">0.4</text>
<line x1="260" y1="890" x2="1490" y2="890" class="grid"/>
<text x="220" y="900" text-anchor="end" class="tick">0.0</text>
<line x1="260" y1="730" x2="1490" y2="730" class="grid"/>
<text x="220" y="740" text-anchor="end" class="tick">0.1</text>
<line x1="260" y1="570" x2="1490" y2="570" class="grid"/>
<text x="220" y="580" text-anchor="end" class="tick">0.2</text>
<line x1="260" y1="410" x2="1490" y2="410" class="grid"/>
<text x="220" y="420" text-anchor="end" class="tick">0.3</text>
<line x1="260" y1="250" x2="1490" y2="250" class="grid"/>
<text x="220" y="260" text-anchor="end" class="tick">0.4</text>
<line x1="260" y1="890" x2="1490" y2="890" class="axis"/>
<line x1="260" y1="170" x2="260" y2="890" class="axis"/>
<text x="875" y="994" text-anchor="middle">Hidden influence</text>
<text x="80" y="530" text-anchor="middle" transform="rotate(-90 80 530)">Total influence distortion</text>
<rect x="805.2" y="330" width="24" height="24" fill="#111111" class="point"/>
<rect x="267.4" y="693.0" width="24" height="24" fill="#111111" class="point"/>
<rect x="1068.4" y="530.6" width="24" height="24" fill="#111111" class="point"/>
<rect x="381.1" y="662.2" width="24" height="24" fill="#111111" class="point"/>
<line x1="817.2" y1="342" x2="817.2" y2="300" class="leader"/>
<line x1="1080.4" y1="542.6" x2="1080.4" y2="500.6" class="leader"/>
<line x1="393.1" y1="674.2" x2="393.1" y2="632.2" class="leader"/>
<line x1="279.4" y1="705.0" x2="321.4" y2="721.0" class="leader"/>
<rect x="749.7" y="254" width="135" height="46" fill="#ffffff" class="label-box"/>
<text x="764.7" y="285" text-anchor="start" class="label">Low E/D</text>
<rect x="952.9" y="454.6" width="255" height="46" fill="#ffffff" class="label-box"/>
<text x="967.9" y="485.6" text-anchor="start" class="label">Finance+evasion</text>
<rect x="288.1" y="586.2" width="210" height="46" fill="#ffffff" class="label-box"/>
<text x="303.1" y="617.2" text-anchor="start" class="label">Cooling+door</text>
<rect x="321.4" y="721.0" width="150" height="46" fill="#ffffff" class="label-box"/>
<text x="336.4" y="752.0" text-anchor="start" class="label">High E/D</text>
</svg>
