<svg xmlns="http://www.w3.org/2000/svg" width="1800px" height="1100px" viewBox="0 0 1800 1100" role="img">
<title>Scenario tradeoff view</title>
<desc>Scatter plot comparing observed capture rates against total influence distortion across selected scenarios.</desc>
<style>
text { font-family: Helvetica, Arial, sans-serif; font-size: 34px; fill: #111; }
.title { font-size: 46px; font-weight: 700; }
.subtitle { font-size: 30px; fill: #444; }
.small, .tick, .label { font-size: 28px; }
.axis { stroke: #111; stroke-width: 5; fill: none; }
.grid { stroke: #d8d8d8; stroke-width: 3; fill: none; }
.segment, .point, .legend-swatch { stroke: #111; stroke-width: 2; }
.label-box { fill: #fff; stroke: #111; stroke-width: 2; }
.leader { stroke: #333; stroke-width: 2; fill: none; stroke-dasharray: 8 8; }
.series-primary { stroke: #111; stroke-width: 8; fill: none; }
.series-secondary { stroke: #777; stroke-width: 8; fill: none; stroke-dasharray: 24 18; }
</style>
<rect width="100%" height="100%" fill="#fff"/>
<text x="70" y="72" text-anchor="start" class="title">Scenario tradeoff view</text>
<text x="70" y="122" text-anchor="start" class="subtitle">Observed capture versus total distortion</text>
<line x1="284.1" y1="170" x2="284.1" y2="890" class="grid"/>
<text x="284.1" y="938" text-anchor="middle" class="tick">0</text>
<line x1="585.6" y1="170" x2="585.6" y2="890" class="grid"/>
<text x="585.6" y="938" text-anchor="middle" class="tick">0.25</text>
<line x1="887.1" y1="170" x2="887.1" y2="890" class="grid"/>
<text x="887.1" y="938" text-anchor="middle" class="tick">0.5</text>
<line x1="1188.5" y1="170" x2="1188.5" y2="890" class="grid"/>
<text x="1188.5" y="938" text-anchor="middle" class="tick">0.75</text>
<line x1="1490" y1="170" x2="1490" y2="890" class="grid"/>
<text x="1490" y="938" text-anchor="middle" class="tick">1</text>
<line x1="260" y1="890" x2="1490" y2="890" class="grid"/>
<text x="220" y="900" text-anchor="end" class="tick">0.0</text>
<line x1="260" y1="759.1" x2="1490" y2="759.1" class="grid"/>
<text x="220" y="769.1" text-anchor="end" class="tick">0.1</text>
<line x1="260" y1="628.2" x2="1490" y2="628.2" class="grid"/>
<text x="220" y="638.2" text-anchor="end" class="tick">0.2</text>
<line x1="260" y1="497.3" x2="1490" y2="497.3" class="grid"/>
<text x="220" y="507.3" text-anchor="end" class="tick">0.3</text>
<line x1="260" y1="366.4" x2="1490" y2="366.4" class="grid"/>
<text x="220" y="376.4" text-anchor="end" class="tick">0.4</text>
<line x1="260" y1="235.5" x2="1490" y2="235.5" class="grid"/>
<text x="220" y="245.5" text-anchor="end" class="tick">0.5</text>
<line x1="260" y1="890" x2="1490" y2="890" class="axis"/>
<line x1="260" y1="170" x2="260" y2="890" class="axis"/>
<text x="875" y="994" text-anchor="middle">Capture rate</text>
<text x="80" y="530" text-anchor="middle" transform="rotate(-90 80 530)">Total influence distortion</text>
<rect x="1276.7" y="484.2" width="24" height="24" fill="#111111" class="point"/>
<rect x="1476.6" y="407.9" width="24" height="24" fill="#111111" class="point"/>
<rect x="1359.0" y="454.2" width="24" height="24" fill="#111111" class="point"/>
<rect x="1352.1" y="401.4" width="24" height="24" fill="#111111" class="point"/>
<rect x="1476.6" y="411.3" width="24" height="24" fill="#111111" class="point"/>
<rect x="1271.6" y="396" width="24" height="24" fill="#111111" class="point"/>
<rect x="993.4" y="527.0" width="24" height="24" fill="#111111" class="point"/>
<rect x="901.1" y="518" width="24" height="24" fill="#111111" class="point"/>
<rect x="827.5" y="553.7" width="24" height="24" fill="#111111" class="point"/>
<rect x="705.1" y="577.2" width="24" height="24" fill="#111111" class="point"/>
<rect x="286.6" y="731.3" width="32" height="32" fill="#555555" class="point"/>
<rect x="719.2" y="573.7" width="32" height="32" fill="#555555" class="point"/>
<line x1="1283.6" y1="408" x2="1283.6" y2="366" class="leader"/>
<line x1="1364.1" y1="413.4" x2="1406.1" y2="397.4" class="leader"/>
<line x1="1488.6" y1="419.9" x2="1488.6" y2="461.9" class="leader"/>
<line x1="1488.6" y1="423.3" x2="1530.6" y2="407.3" class="leader"/>
<line x1="1371.0" y1="466.2" x2="1371.0" y2="508.2" class="leader"/>
<line x1="1288.7" y1="496.2" x2="1246.7" y2="496.2" class="leader"/>
<line x1="913.1" y1="530" x2="913.1" y2="488" class="leader"/>
<line x1="1005.4" y1="539.0" x2="1005.4" y2="581.0" class="leader"/>
<line x1="839.5" y1="565.7" x2="839.5" y2="607.7" class="leader"/>
<line x1="717.1" y1="589.2" x2="717.1" y2="547.2" class="leader"/>
<line x1="735.2" y1="589.7" x2="693.2" y2="605.7" class="leader"/>
<line x1="302.6" y1="747.3" x2="344.6" y2="747.3" class="leader"/>
<rect x="1231.1" y="320" width="105" height="46" fill="#ffffff" class="label-box"/>
<text x="1246.1" y="351" text-anchor="start" class="label">Inter</text>
<rect x="1406.1" y="351.4" width="90" height="46" fill="#ffffff" class="label-box"/>
<text x="1421.1" y="382.4" text-anchor="start" class="label">Dark</text>
<rect x="1443.6" y="461.9" width="90" height="46" fill="#ffffff" class="label-box"/>
<text x="1458.6" y="492.9" text-anchor="start" class="label">Rule</text>
<rect x="1530.6" y="361.3" width="90" height="46" fill="#ffffff" class="label-box"/>
<text x="1545.6" y="392.3" text-anchor="start" class="label">Door</text>
<rect x="1326.0" y="508.2" width="90" height="46" fill="#ffffff" class="label-box"/>
<text x="1341.0" y="539.2" text-anchor="start" class="label">Camp</text>
<rect x="1156.7" y="473.2" width="90" height="46" fill="#ffffff" class="label-box"/>
<text x="1171.7" y="504.2" text-anchor="start" class="label">Open</text>
<rect x="868.1" y="442" width="90" height="46" fill="#ffffff" class="label-box"/>
<text x="883.1" y="473" text-anchor="start" class="label">Auth</text>
<rect x="964.4" y="581.0" width="82" height="46" fill="#ffffff" class="label-box"/>
<text x="979.4" y="612.0" text-anchor="start" class="label">RTD</text>
<rect x="794.5" y="607.7" width="90" height="46" fill="#ffffff" class="label-box"/>
<text x="809.5" y="638.7" text-anchor="start" class="label">Proc</text>
<rect x="664.6" y="501.2" width="105" height="46" fill="#ffffff" class="label-box"/>
<text x="679.6" y="532.2" text-anchor="start" class="label">Venue</text>
<rect x="558.2" y="605.7" width="135" height="46" fill="#ffffff" class="label-box"/>
<text x="573.2" y="636.7" text-anchor="start" class="label">Evasion</text>
<rect x="344.6" y="724.3" width="120" height="46" fill="#ffffff" class="label-box"/>
<text x="359.6" y="755.3" text-anchor="start" class="label">Bundle</text>
</svg>
