<svg xmlns="http://www.w3.org/2000/svg" width="1800px" height="1100px" viewBox="0 0 1800 1100" role="img">
<title>Interaction tradeoff view</title>
<desc>Scatter plot comparing hidden influence against net transparency gain after reforms bind.</desc>
<style>
text { font-family: Helvetica, Arial, sans-serif; font-size: 34px; fill: #111; }
.title { font-size: 46px; font-weight: 700; }
.subtitle { font-size: 30px; fill: #444; }
.small, .tick, .label { font-size: 28px; }
.axis { stroke: #111; stroke-width: 5; fill: none; }
.grid { stroke: #d8d8d8; stroke-width: 3; fill: none; }
.segment, .point, .legend-swatch { stroke: #111; stroke-width: 2; }
.series-primary { stroke: #111; stroke-width: 8; fill: none; }
.series-secondary { stroke: #777; stroke-width: 8; fill: none; stroke-dasharray: 24 18; }
</style>
<rect width="100%" height="100%" fill="#fff"/>
<text x="70" y="72" text-anchor="start" class="title">Interaction tradeoff view</text>
<text x="70" y="122" text-anchor="start" class="subtitle">Hidden influence versus net transparency gain</text>
<line x1="260" y1="170" x2="260" y2="890" class="grid"/>
<text x="260" y="938" text-anchor="middle" class="tick">0</text>
<line x1="567.5" y1="170" x2="567.5" y2="890" class="grid"/>
<text x="567.5" y="938" text-anchor="middle" class="tick">0.1</text>
<line x1="875" y1="170" x2="875" y2="890" class="grid"/>
<text x="875" y="938" text-anchor="middle" class="tick">0.2</text>
<line x1="1182.5" y1="170" x2="1182.5" y2="890" class="grid"/>
<text x="1182.5" y="938" text-anchor="middle" class="tick">0.3</text>
<line x1="1490" y1="170" x2="1490" y2="890" class="grid"/>
<text x="1490" y="938" text-anchor="middle" class="tick">0.4</text>
<line x1="260" y1="890" x2="1490" y2="890" class="grid"/>
<text x="220" y="900" text-anchor="end" class="tick">0.0</text>
<line x1="260" y1="710" x2="1490" y2="710" class="grid"/>
<text x="220" y="720" text-anchor="end" class="tick">0.1</text>
<line x1="260" y1="530" x2="1490" y2="530" class="grid"/>
<text x="220" y="540" text-anchor="end" class="tick">0.2</text>
<line x1="260" y1="350" x2="1490" y2="350" class="grid"/>
<text x="220" y="360" text-anchor="end" class="tick">0.3</text>
<line x1="260" y1="170" x2="1490" y2="170" class="grid"/>
<text x="220" y="180" text-anchor="end" class="tick">0.4</text>
<line x1="260" y1="890" x2="1490" y2="890" class="axis"/>
<line x1="260" y1="170" x2="260" y2="890" class="axis"/>
<text x="875" y="994" text-anchor="middle">Hidden influence</text>
<text x="80" y="530" text-anchor="middle" transform="rotate(-90 80 530)">Net transparency gain</text>
<rect x="738.5" y="878" width="24" height="24" fill="#111111" class="point"/>
<text x="814.5" y="852" text-anchor="start" class="label">Low E/D</text>
<rect x="601.9" y="158" width="24" height="24" fill="#111111" class="point"/>
<text x="677.9" y="132" text-anchor="start" class="label">High E/D</text>
<rect x="1432.2" y="675.3" width="24" height="24" fill="#111111" class="point"/>
<text x="1380.2" y="649.3" text-anchor="end" class="label">Finance+evasion</text>
<rect x="661.0" y="335.1" width="24" height="24" fill="#111111" class="point"/>
<text x="737.0" y="389.1" text-anchor="start" class="label">Cooling+door</text>
</svg>
