<svg xmlns="http://www.w3.org/2000/svg" width="1800px" height="1100px" viewBox="0 0 1800 1100" role="img">
<title>Apparent success versus substitution failure</title>
<desc>Scatter plot comparing observed capture deltas with total influence distortion deltas for flagged audit rows.</desc>
<style>
text { font-family: Helvetica, Arial, sans-serif; font-size: 34px; fill: #111; }
.title { font-size: 46px; font-weight: 700; }
.subtitle { font-size: 30px; fill: #444; }
.small, .tick, .label { font-size: 28px; }
.axis { stroke: #111; stroke-width: 5; fill: none; }
.grid { stroke: #d8d8d8; stroke-width: 3; fill: none; }
.segment, .point, .legend-swatch { stroke: #111; stroke-width: 2; }
.label-box { fill: #fff; stroke: #111; stroke-width: 2; }
.leader { stroke: #333; stroke-width: 2; fill: none; stroke-dasharray: 8 8; }
.threshold { stroke: #999; stroke-width: 4; fill: none; stroke-dasharray: 12 12; }
.series-primary { stroke: #111; stroke-width: 8; fill: none; }
.series-secondary { stroke: #777; stroke-width: 8; fill: none; stroke-dasharray: 24 18; }
</style>
<rect width="100%" height="100%" fill="#fff"/>
<text x="70" y="72" text-anchor="start" class="title">Apparent success versus substitution failure</text>
<text x="70" y="122" text-anchor="start" class="subtitle">Capture change against total-distortion change</text>
<line x1="260" y1="170" x2="260" y2="890" class="grid"/>
<text x="260" y="938" text-anchor="middle" class="tick">-1</text>
<line x1="506" y1="170" x2="506" y2="890" class="grid"/>
<text x="506" y="938" text-anchor="middle" class="tick">-0.75</text>
<line x1="752" y1="170" x2="752" y2="890" class="grid"/>
<text x="752" y="938" text-anchor="middle" class="tick">-0.5</text>
<line x1="998" y1="170" x2="998" y2="890" class="grid"/>
<text x="998" y="938" text-anchor="middle" class="tick">-0.25</text>
<line x1="1244" y1="170" x2="1244" y2="890" class="grid"/>
<text x="1244" y="938" text-anchor="middle" class="tick">0</text>
<line x1="1490" y1="170" x2="1490" y2="890" class="grid"/>
<text x="1490" y="938" text-anchor="middle" class="tick">0.25</text>
<line x1="260" y1="890" x2="1490" y2="890" class="grid"/>
<text x="220" y="900" text-anchor="end" class="tick">-0.2</text>
<line x1="260" y1="746" x2="1490" y2="746" class="grid"/>
<text x="220" y="756" text-anchor="end" class="tick">-0.1</text>
<line x1="260" y1="602" x2="1490" y2="602" class="grid"/>
<text x="220" y="612" text-anchor="end" class="tick">0.0</text>
<line x1="260" y1="458" x2="1490" y2="458" class="grid"/>
<text x="220" y="468" text-anchor="end" class="tick">0.1</text>
<line x1="260" y1="314" x2="1490" y2="314" class="grid"/>
<text x="220" y="324" text-anchor="end" class="tick">0.2</text>
<line x1="260" y1="170" x2="1490" y2="170" class="grid"/>
<text x="220" y="180" text-anchor="end" class="tick">0.3</text>
<line x1="260" y1="890" x2="1490" y2="890" class="axis"/>
<line x1="260" y1="170" x2="260" y2="890" class="axis"/>
<text x="875" y="994" text-anchor="middle">Observed capture delta</text>
<text x="80" y="530" text-anchor="middle" transform="rotate(-90 80 530)">Total distortion delta</text>
<line x1="1244" y1="170" x2="1244" y2="890" class="threshold"/>
<line x1="260" y1="602" x2="1490" y2="602" class="threshold"/>
<text x="1222" y="210" text-anchor="end" class="small">visible capture lower</text>
<text x="1266" y="582" text-anchor="start" class="small">distortion higher</text>
<rect x="1017.3" y="547.4" width="32" height="32" fill="#555555" class="point"/>
<rect x="1017.6" y="518.0" width="32" height="32" fill="#555555" class="point"/>
<rect x="915.0" y="595.1" width="32" height="32" fill="#555555" class="point"/>
<rect x="862.6" y="677.4" width="32" height="32" fill="#555555" class="point"/>
<rect x="986.3" y="574.0" width="32" height="32" fill="#555555" class="point"/>
<rect x="1058.3" y="547.0" width="32" height="32" fill="#555555" class="point"/>
<rect x="383.6" y="874" width="32" height="32" fill="#555555" class="point"/>
<rect x="980.7" y="558.4" width="32" height="32" fill="#555555" class="point"/>
<rect x="1004.4" y="567.7" width="32" height="32" fill="#555555" class="point"/>
<rect x="844.2" y="675.7" width="32" height="32" fill="#555555" class="point"/>
<line x1="1033.6" y1="534.0" x2="1033.6" y2="492.0" class="leader"/>
<line x1="1074.3" y1="563.0" x2="1074.3" y2="653.0" class="leader"/>
<line x1="1033.3" y1="563.4" x2="1033.3" y2="413.4" class="leader"/>
<line x1="996.7" y1="574.4" x2="996.7" y2="724.4" class="leader"/>
<line x1="1020.4" y1="583.7" x2="1020.4" y2="803.7" class="leader"/>
<line x1="1002.3" y1="590.0" x2="960.3" y2="574.0" class="leader"/>
<line x1="931.0" y1="611.1" x2="889.0" y2="627.1" class="leader"/>
<line x1="860.2" y1="691.7" x2="825" y2="703" class="leader"/>
<line x1="878.6" y1="693.4" x2="878.6" y2="315" class="leader"/>
<line x1="399.6" y1="890" x2="399.6" y2="848" class="leader"/>
<rect x="838.6" y="446.0" width="390" height="46" fill="#ffffff" class="label-box"/>
<text x="853.6" y="477.0" text-anchor="start" class="label">Camp. Procurement modifi</text>
<rect x="916.8" y="653.0" width="315" height="46" fill="#ffffff" class="label-box"/>
<text x="931.8" y="684.0" text-anchor="start" class="label">Camp. Budget stress</text>
<rect x="838.3" y="367.4" width="390" height="46" fill="#ffffff" class="label-box"/>
<text x="853.3" y="398.4" text-anchor="start" class="label">Camp. Visible lobbying b</text>
<rect x="854.2" y="724.4" width="285" height="46" fill="#ffffff" class="label-box"/>
<text x="869.2" y="755.4" text-anchor="start" class="label">Camp. Proc. shift</text>
<rect x="825.4" y="803.7" width="390" height="46" fill="#ffffff" class="label-box"/>
<text x="840.4" y="834.7" text-anchor="start" class="label">Camp. Public-finance out</text>
<rect x="570.3" y="528.0" width="390" height="46" fill="#ffffff" class="label-box"/>
<text x="585.3" y="559.0" text-anchor="start" class="label">Camp. Comment-authentici</text>
<rect x="619.0" y="627.1" width="270" height="46" fill="#ffffff" class="label-box"/>
<text x="634.0" y="658.1" text-anchor="start" class="label">Camp. Shadow max</text>
<rect x="435" y="703" width="390" height="46" fill="#ffffff" class="label-box"/>
<text x="450" y="734" text-anchor="start" class="label">Camp. Public-finance dar</text>
<rect x="705" y="269" width="330" height="46" fill="#ffffff" class="label-box"/>
<text x="720" y="300" text-anchor="start" class="label">Camp. Bundle+evasion</text>
<rect x="255" y="802" width="390" height="46" fill="#ffffff" class="label-box"/>
<text x="270" y="833" text-anchor="start" class="label">Camp. Full anti-capture </text>
</svg>
