<svg xmlns="http://www.w3.org/2000/svg" width="1800px" height="1100px" viewBox="0 0 1800 1100" role="img">
<title>Apparent success and substitution warnings</title>
<desc>Scatter plot comparing observed capture deltas with total influence distortion deltas for flagged substitution-audit rows.</desc>
<style>
text { font-family: Helvetica, Arial, sans-serif; font-size: 34px; fill: #111; }
.title { font-size: 46px; font-weight: 700; }
.subtitle { font-size: 30px; fill: #444; }
.small, .tick, .label { font-size: 28px; }
.point-number { font-size: 22px; fill: #fff; font-weight: 700; }
.arch-title { font-size: 30px; font-weight: 700; }
.axis { stroke: #111; stroke-width: 5; fill: none; }
.grid { stroke: #d8d8d8; stroke-width: 3; fill: none; }
.segment, .point, .legend-swatch, .arch-box { stroke: #111; stroke-width: 2; }
.warning-zone { stroke: none; }
.label-box { fill: #fff; stroke: #111; stroke-width: 2; }
.leader { stroke: #333; stroke-width: 2; fill: none; stroke-dasharray: 8 8; }
.threshold { stroke: #999; stroke-width: 4; fill: none; stroke-dasharray: 12 12; }
.series-primary { stroke: #111; stroke-width: 8; fill: none; }
.series-secondary { stroke: #777; stroke-width: 8; fill: none; stroke-dasharray: 24 18; }
</style>
<rect width="100%" height="100%" fill="#fff"/>
<text x="70" y="72" text-anchor="start" class="title">Apparent success and substitution warnings</text>
<text x="70" y="122" text-anchor="start" class="subtitle">Observed capture change versus total-distortion change</text>
<rect x="260" y="170" width="984" height="432" fill="#f2f2f2" class="warning-zone"/>
<line x1="260" y1="170" x2="260" y2="890" class="grid"/>
<text x="260" y="938" text-anchor="middle" class="tick">-1</text>
<line x1="506" y1="170" x2="506" y2="890" class="grid"/>
<text x="506" y="938" text-anchor="middle" class="tick">-0.75</text>
<line x1="752" y1="170" x2="752" y2="890" class="grid"/>
<text x="752" y="938" text-anchor="middle" class="tick">-0.5</text>
<line x1="998" y1="170" x2="998" y2="890" class="grid"/>
<text x="998" y="938" text-anchor="middle" class="tick">-0.25</text>
<line x1="1244" y1="170" x2="1244" y2="890" class="grid"/>
<text x="1244" y="938" text-anchor="middle" class="tick">0</text>
<line x1="1490" y1="170" x2="1490" y2="890" class="grid"/>
<text x="1490" y="938" text-anchor="middle" class="tick">0.25</text>
<line x1="260" y1="890" x2="1490" y2="890" class="grid"/>
<text x="220" y="900" text-anchor="end" class="tick">-0.2</text>
<line x1="260" y1="746" x2="1490" y2="746" class="grid"/>
<text x="220" y="756" text-anchor="end" class="tick">-0.1</text>
<line x1="260" y1="602" x2="1490" y2="602" class="grid"/>
<text x="220" y="612" text-anchor="end" class="tick">0.0</text>
<line x1="260" y1="458" x2="1490" y2="458" class="grid"/>
<text x="220" y="468" text-anchor="end" class="tick">0.1</text>
<line x1="260" y1="314" x2="1490" y2="314" class="grid"/>
<text x="220" y="324" text-anchor="end" class="tick">0.2</text>
<line x1="260" y1="170" x2="1490" y2="170" class="grid"/>
<text x="220" y="180" text-anchor="end" class="tick">0.3</text>
<line x1="260" y1="890" x2="1490" y2="890" class="axis"/>
<line x1="260" y1="170" x2="260" y2="890" class="axis"/>
<text x="875" y="994" text-anchor="middle">Observed capture change vs. comparison</text>
<text x="80" y="530" text-anchor="middle" transform="rotate(-90 80 530)">Total distortion change vs. comparison</text>
<line x1="1244" y1="170" x2="1244" y2="890" class="threshold"/>
<line x1="260" y1="602" x2="1490" y2="602" class="threshold"/>
<text x="1222" y="210" text-anchor="end" class="small">capture lower, distortion higher</text>
<text x="1266" y="582" text-anchor="start" class="small">distortion higher</text>
<rect x="1017.3" y="547.4" width="32" height="32" fill="#555555" class="point"/>
<rect x="1017.6" y="518.0" width="32" height="32" fill="#555555" class="point"/>
<rect x="919.0" y="599.1" width="24" height="24" fill="#111111" class="point"/>
<rect x="866.6" y="681.4" width="24" height="24" fill="#111111" class="point"/>
<rect x="990.3" y="578.0" width="24" height="24" fill="#111111" class="point"/>
<rect x="1058.3" y="547.0" width="32" height="32" fill="#555555" class="point"/>
<text x="1074.3" y="573.0" text-anchor="middle" class="point-number">6</text>
<rect x="387.6" y="878" width="24" height="24" fill="#111111" class="point"/>
<text x="399.6" y="900" text-anchor="middle" class="point-number">7</text>
<rect x="984.7" y="562.4" width="24" height="24" fill="#111111" class="point"/>
<text x="996.7" y="584.4" text-anchor="middle" class="point-number">8</text>
<rect x="1008.4" y="571.7" width="24" height="24" fill="#111111" class="point"/>
<text x="1020.4" y="593.7" text-anchor="middle" class="point-number">9</text>
<rect x="848.2" y="679.7" width="24" height="24" fill="#111111" class="point"/>
<text x="860.2" y="701.7" text-anchor="middle" class="point-number">10</text>
<text x="1482" y="218" text-anchor="end" class="small">Numbered markers are ranks 6-10</text>
<line x1="1033.6" y1="534.0" x2="1033.6" y2="492.0" class="leader"/>
<line x1="1033.3" y1="563.4" x2="1033.3" y2="413.4" class="leader"/>
<line x1="1002.3" y1="590.0" x2="1002.3" y2="740.0" class="leader"/>
<line x1="931.0" y1="611.1" x2="931.0" y2="563" class="leader"/>
<line x1="878.6" y1="693.4" x2="878.6" y2="826" class="leader"/>
<rect x="898.6" y="446.0" width="270" height="46" fill="#ffffff" class="label-box"/>
<text x="913.6" y="477.0" text-anchor="start" class="label">Camp. Proc. mods</text>
<rect x="868.3" y="367.4" width="330" height="46" fill="#ffffff" class="label-box"/>
<text x="883.3" y="398.4" text-anchor="start" class="label">Camp. Ban+DM leakage</text>
<rect x="852.3" y="740.0" width="300" height="46" fill="#ffffff" class="label-box"/>
<text x="867.3" y="771.0" text-anchor="start" class="label">Camp. Comment tech</text>
<rect x="705" y="517" width="270" height="46" fill="#ffffff" class="label-box"/>
<text x="720" y="548" text-anchor="start" class="label">Camp. Shadow max</text>
<rect x="713.6" y="826" width="330" height="46" fill="#ffffff" class="label-box"/>
<text x="728.6" y="857" text-anchor="start" class="label">Camp. Bundle+evasion</text>
</svg>
