<svg xmlns="http://www.w3.org/2000/svg" width="1800px" height="1100px" viewBox="0 0 1800 1100" role="img">
<title>Interaction tradeoff view</title>
<desc>Scatter plot comparing hidden influence against total influence distortion after reforms bind.</desc>
<style>
text { font-family: Helvetica, Arial, sans-serif; font-size: 34px; fill: #111; }
.title { font-size: 46px; font-weight: 700; }
.subtitle { font-size: 30px; fill: #444; }
.small, .tick, .label { font-size: 28px; }
.axis { stroke: #111; stroke-width: 5; fill: none; }
.grid { stroke: #d8d8d8; stroke-width: 3; fill: none; }
.segment, .point, .legend-swatch { stroke: #111; stroke-width: 2; }
.label-box { fill: #fff; stroke: #111; stroke-width: 2; }
.leader { stroke: #333; stroke-width: 2; fill: none; stroke-dasharray: 8 8; }
.series-primary { stroke: #111; stroke-width: 8; fill: none; }
.series-secondary { stroke: #777; stroke-width: 8; fill: none; stroke-dasharray: 24 18; }
</style>
<rect width="100%" height="100%" fill="#fff"/>
<text x="70" y="72" text-anchor="start" class="title">Interaction tradeoff view</text>
<text x="70" y="122" text-anchor="start" class="subtitle">Hidden influence versus total distortion</text>
<line x1="260" y1="170" x2="260" y2="890" class="grid"/>
<text x="260" y="938" text-anchor="middle" class="tick">0</text>
<line x1="567.5" y1="170" x2="567.5" y2="890" class="grid"/>
<text x="567.5" y="938" text-anchor="middle" class="tick">0.1</text>
<line x1="875" y1="170" x2="875" y2="890" class="grid"/>
<text x="875" y="938" text-anchor="middle" class="tick">0.2</text>
<line x1="1182.5" y1="170" x2="1182.5" y2="890" class="grid"/>
<text x="1182.5" y="938" text-anchor="middle" class="tick">0.3</text>
<line x1="1490" y1="170" x2="1490" y2="890" class="grid"/>
<text x="1490" y="938" text-anchor="middle" class="tick">0.4</text>
<line x1="260" y1="890" x2="1490" y2="890" class="grid"/>
<text x="220" y="900" text-anchor="end" class="tick">0.0</text>
<line x1="260" y1="730" x2="1490" y2="730" class="grid"/>
<text x="220" y="740" text-anchor="end" class="tick">0.1</text>
<line x1="260" y1="570" x2="1490" y2="570" class="grid"/>
<text x="220" y="580" text-anchor="end" class="tick">0.2</text>
<line x1="260" y1="410" x2="1490" y2="410" class="grid"/>
<text x="220" y="420" text-anchor="end" class="tick">0.3</text>
<line x1="260" y1="250" x2="1490" y2="250" class="grid"/>
<text x="220" y="260" text-anchor="end" class="tick">0.4</text>
<line x1="260" y1="890" x2="1490" y2="890" class="axis"/>
<line x1="260" y1="170" x2="260" y2="890" class="axis"/>
<text x="875" y="994" text-anchor="middle">Hidden influence</text>
<text x="80" y="530" text-anchor="middle" transform="rotate(-90 80 530)">Total influence distortion</text>
<rect x="799.3" y="334.8" width="24" height="24" fill="#111111" class="point"/>
<rect x="267.4" y="694.3" width="24" height="24" fill="#111111" class="point"/>
<rect x="1054.9" y="538.8" width="24" height="24" fill="#111111" class="point"/>
<rect x="382.1" y="665.4" width="24" height="24" fill="#111111" class="point"/>
<line x1="811.3" y1="346.8" x2="811.3" y2="304.8" class="leader"/>
<line x1="1066.9" y1="550.8" x2="1066.9" y2="508.8" class="leader"/>
<line x1="394.1" y1="677.4" x2="394.1" y2="635.4" class="leader"/>
<line x1="279.4" y1="706.3" x2="321.4" y2="722.3" class="leader"/>
<rect x="743.8" y="258.8" width="135" height="46" fill="#ffffff" class="label-box"/>
<text x="758.8" y="289.8" text-anchor="start" class="label">Low E/D</text>
<rect x="939.4" y="462.8" width="255" height="46" fill="#ffffff" class="label-box"/>
<text x="954.4" y="493.8" text-anchor="start" class="label">Finance+evasion</text>
<rect x="289.1" y="589.4" width="210" height="46" fill="#ffffff" class="label-box"/>
<text x="304.1" y="620.4" text-anchor="start" class="label">Cooling+door</text>
<rect x="321.4" y="722.3" width="150" height="46" fill="#ffffff" class="label-box"/>
<text x="336.4" y="753.3" text-anchor="start" class="label">High E/D</text>
</svg>
