<svg xmlns="http://www.w3.org/2000/svg" width="1800px" height="1100px" viewBox="0 0 1800 1100" role="img">
<title>Channel allocation mix</title>
<desc>Stacked horizontal bars showing modeled budget allocation shares across influence channels.</desc>
<style>
text { font-family: Helvetica, Arial, sans-serif; font-size: 34px; fill: #111; }
.title { font-size: 46px; font-weight: 700; }
.subtitle { font-size: 30px; fill: #444; }
.small, .tick, .label { font-size: 28px; }
.axis { stroke: #111; stroke-width: 5; fill: none; }
.grid { stroke: #d8d8d8; stroke-width: 3; fill: none; }
.segment, .point, .legend-swatch { stroke: #111; stroke-width: 2; }
.label-box { fill: #fff; stroke: #111; stroke-width: 2; }
.leader { stroke: #333; stroke-width: 2; fill: none; stroke-dasharray: 8 8; }
.threshold { stroke: #999; stroke-width: 4; fill: none; stroke-dasharray: 12 12; }
.series-primary { stroke: #111; stroke-width: 8; fill: none; }
.series-secondary { stroke: #777; stroke-width: 8; fill: none; stroke-dasharray: 24 18; }
</style>
<rect width="100%" height="100%" fill="#fff"/>
<text x="70" y="72" text-anchor="start" class="title">Channel allocation mix</text>
<text x="70" y="122" text-anchor="start" class="subtitle">Share of lobby spending by channel</text>
<line x1="440" y1="288" x2="440" y2="984" class="grid"/>
<text x="440" y="1032" text-anchor="middle" class="tick">0</text>
<line x1="700" y1="288" x2="700" y2="984" class="grid"/>
<text x="700" y="1032" text-anchor="middle" class="tick">0.25</text>
<line x1="960" y1="288" x2="960" y2="984" class="grid"/>
<text x="960" y="1032" text-anchor="middle" class="tick">0.5</text>
<line x1="1220" y1="288" x2="1220" y2="984" class="grid"/>
<text x="1220" y="1032" text-anchor="middle" class="tick">0.75</text>
<line x1="1480" y1="288" x2="1480" y2="984" class="grid"/>
<text x="1480" y="1032" text-anchor="middle" class="tick">1</text>
<text x="70" y="339" text-anchor="start">Open access</text>
<rect x="440" y="310" width="118.9" height="38" fill="#d0d0d0" class="segment"/>
<rect x="558.9" y="310" width="125.9" height="38" fill="#ababab" class="segment"/>
<rect x="684.8" y="310" width="152.6" height="38" fill="#808080" class="segment"/>
<rect x="837.4" y="310" width="85.5" height="38" fill="#595959" class="segment"/>
<rect x="922.9" y="310" width="102.9" height="38" fill="#333333" class="segment"/>
<rect x="1025.7" y="310" width="86.6" height="38" fill="#1f4e79" class="segment"/>
<rect x="1112.4" y="310" width="83.2" height="38" fill="#8c564b" class="segment"/>
<rect x="1195.6" y="310" width="46.4" height="38" fill="#000000" class="segment"/>
<text x="70" y="421" text-anchor="start">Rulemaking</text>
<rect x="440" y="392" width="62.4" height="38" fill="#d0d0d0" class="segment"/>
<rect x="502.4" y="392" width="468" height="38" fill="#ababab" class="segment"/>
<rect x="970.4" y="392" width="72.8" height="38" fill="#808080" class="segment"/>
<rect x="1043.2" y="392" width="20.8" height="38" fill="#595959" class="segment"/>
<rect x="1064" y="392" width="124.8" height="38" fill="#333333" class="segment"/>
<rect x="1188.8" y="392" width="52" height="38" fill="#1f4e79" class="segment"/>
<rect x="1240.8" y="392" width="104" height="38" fill="#8c564b" class="segment"/>
<text x="70" y="503" text-anchor="start">Campaign</text>
<rect x="440" y="474" width="72.8" height="38" fill="#d0d0d0" class="segment"/>
<rect x="512.8" y="474" width="41.6" height="38" fill="#ababab" class="segment"/>
<rect x="554.4" y="474" width="72.8" height="38" fill="#808080" class="segment"/>
<rect x="627.2" y="474" width="499.2" height="38" fill="#595959" class="segment"/>
<rect x="1126.4" y="474" width="104" height="38" fill="#333333" class="segment"/>
<rect x="1230.4" y="474" width="52" height="38" fill="#1f4e79" class="segment"/>
<rect x="1282.4" y="474" width="83.2" height="38" fill="#8c564b" class="segment"/>
<text x="70" y="585" text-anchor="start">Dark money</text>
<rect x="440" y="556" width="64.0" height="38" fill="#d0d0d0" class="segment"/>
<rect x="504.0" y="556" width="111.6" height="38" fill="#ababab" class="segment"/>
<rect x="615.6" y="556" width="209.0" height="38" fill="#808080" class="segment"/>
<rect x="824.6" y="556" width="63.9" height="38" fill="#595959" class="segment"/>
<rect x="888.4" y="556" width="194.7" height="38" fill="#333333" class="segment"/>
<rect x="1083.1" y="556" width="75.7" height="38" fill="#1f4e79" class="segment"/>
<rect x="1158.8" y="556" width="91.1" height="38" fill="#8c564b" class="segment"/>
<rect x="1250.0" y="556" width="49.1" height="38" fill="#000000" class="segment"/>
<text x="70" y="667" text-anchor="start">Intermediary</text>
<rect x="440" y="638" width="57.5" height="38" fill="#d0d0d0" class="segment"/>
<rect x="497.5" y="638" width="114.4" height="38" fill="#ababab" class="segment"/>
<rect x="611.9" y="638" width="237.5" height="38" fill="#808080" class="segment"/>
<rect x="849.4" y="638" width="65.7" height="38" fill="#595959" class="segment"/>
<rect x="915.2" y="638" width="213" height="38" fill="#333333" class="segment"/>
<rect x="1128.2" y="638" width="46.1" height="38" fill="#1f4e79" class="segment"/>
<rect x="1174.2" y="638" width="89.9" height="38" fill="#8c564b" class="segment"/>
<rect x="1264.1" y="638" width="44.2" height="38" fill="#000000" class="segment"/>
<text x="70" y="749" text-anchor="start">Vouchers</text>
<rect x="440" y="720" width="62.8" height="38" fill="#d0d0d0" class="segment"/>
<rect x="502.8" y="720" width="114.4" height="38" fill="#ababab" class="segment"/>
<rect x="617.2" y="720" width="170.6" height="38" fill="#808080" class="segment"/>
<rect x="787.8" y="720" width="65.7" height="38" fill="#595959" class="segment"/>
<rect x="853.5" y="720" width="210.9" height="38" fill="#333333" class="segment"/>
<rect x="1064.4" y="720" width="48.7" height="38" fill="#1f4e79" class="segment"/>
<rect x="1113.1" y="720" width="89.9" height="38" fill="#8c564b" class="segment"/>
<rect x="1202.9" y="720" width="70.7" height="38" fill="#000000" class="segment"/>
<text x="70" y="831" text-anchor="start">Full bundle</text>
<rect x="440" y="802" width="64.4" height="38" fill="#d0d0d0" class="segment"/>
<rect x="504.4" y="802" width="145.7" height="38" fill="#ababab" class="segment"/>
<rect x="650.1" y="802" width="205.3" height="38" fill="#808080" class="segment"/>
<rect x="855.4" y="802" width="55.4" height="38" fill="#595959" class="segment"/>
<rect x="910.8" y="802" width="153.3" height="38" fill="#333333" class="segment"/>
<rect x="1064.1" y="802" width="51.3" height="38" fill="#1f4e79" class="segment"/>
<rect x="1115.4" y="802" width="97.1" height="38" fill="#8c564b" class="segment"/>
<rect x="1212.5" y="802" width="62.1" height="38" fill="#000000" class="segment"/>
<text x="70" y="913" text-anchor="start">Bundle+evasion</text>
<rect x="440" y="884" width="63.4" height="38" fill="#d0d0d0" class="segment"/>
<rect x="503.4" y="884" width="143.8" height="38" fill="#ababab" class="segment"/>
<rect x="647.3" y="884" width="223.2" height="38" fill="#808080" class="segment"/>
<rect x="870.5" y="884" width="55.8" height="38" fill="#595959" class="segment"/>
<rect x="926.3" y="884" width="151.7" height="38" fill="#333333" class="segment"/>
<rect x="1078.0" y="884" width="50.5" height="38" fill="#1f4e79" class="segment"/>
<rect x="1128.6" y="884" width="96.3" height="38" fill="#8c564b" class="segment"/>
<rect x="1224.9" y="884" width="57" height="38" fill="#000000" class="segment"/>
<line x1="440" y1="290" x2="440" y2="984" class="axis"/>
<line x1="440" y1="984" x2="1480" y2="984" class="axis"/>
<text x="960" y="1076" text-anchor="middle">Share of lobby spending by channel</text>
<rect x="70" y="156" width="42" height="28" fill="#d0d0d0" class="legend-swatch"/>
<text x="126" y="180" text-anchor="start" class="small">Access</text>
<rect x="475" y="156" width="42" height="28" fill="#ababab" class="legend-swatch"/>
<text x="531" y="180" text-anchor="start" class="small">Info</text>
<rect x="880" y="156" width="42" height="28" fill="#808080" class="legend-swatch"/>
<text x="936" y="180" text-anchor="start" class="small">Public</text>
<rect x="1285" y="156" width="42" height="28" fill="#595959" class="legend-swatch"/>
<text x="1341" y="180" text-anchor="start" class="small">Campaign</text>
<rect x="70" y="206" width="42" height="28" fill="#333333" class="legend-swatch"/>
<text x="126" y="230" text-anchor="start" class="small">Dark</text>
<rect x="475" y="206" width="42" height="28" fill="#1f4e79" class="legend-swatch"/>
<text x="531" y="230" text-anchor="start" class="small">Door</text>
<rect x="880" y="206" width="42" height="28" fill="#8c564b" class="legend-swatch"/>
<text x="936" y="230" text-anchor="start" class="small">Intermediary</text>
<rect x="1285" y="206" width="42" height="28" fill="#000000" class="legend-swatch"/>
<text x="1341" y="230" text-anchor="start" class="small">Defense</text>
</svg>
