<svg xmlns="http://www.w3.org/2000/svg" width="1800px" height="1100px" viewBox="0 0 1800 1100" role="img">
<title>Interaction tradeoff view</title>
<desc>Scatter plot comparing hidden influence against total influence distortion after reforms bind.</desc>
<style>
text { font-family: Helvetica, Arial, sans-serif; font-size: 34px; fill: #111; }
.title { font-size: 46px; font-weight: 700; }
.subtitle { font-size: 30px; fill: #444; }
.small, .tick, .label { font-size: 28px; }
.point-number { font-size: 22px; fill: #fff; font-weight: 700; }
.arch-title { font-size: 30px; font-weight: 700; }
.axis { stroke: #111; stroke-width: 5; fill: none; }
.grid { stroke: #d8d8d8; stroke-width: 3; fill: none; }
.segment, .point, .legend-swatch, .arch-box { stroke: #111; stroke-width: 2; }
.warning-zone { stroke: none; }
.label-box { fill: #fff; stroke: #111; stroke-width: 2; }
.leader { stroke: #333; stroke-width: 2; fill: none; stroke-dasharray: 8 8; }
.threshold { stroke: #999; stroke-width: 4; fill: none; stroke-dasharray: 12 12; }
.series-primary { stroke: #111; stroke-width: 8; fill: none; }
.series-secondary { stroke: #777; stroke-width: 8; fill: none; stroke-dasharray: 24 18; }
</style>
<rect width="100%" height="100%" fill="#fff"/>
<text x="70" y="72" text-anchor="start" class="title">Interaction tradeoff view</text>
<text x="70" y="122" text-anchor="start" class="subtitle">Hidden influence versus total distortion</text>
<line x1="260" y1="170" x2="260" y2="890" class="grid"/>
<text x="260" y="938" text-anchor="middle" class="tick">0</text>
<line x1="567.5" y1="170" x2="567.5" y2="890" class="grid"/>
<text x="567.5" y="938" text-anchor="middle" class="tick">0.1</text>
<line x1="875" y1="170" x2="875" y2="890" class="grid"/>
<text x="875" y="938" text-anchor="middle" class="tick">0.2</text>
<line x1="1182.5" y1="170" x2="1182.5" y2="890" class="grid"/>
<text x="1182.5" y="938" text-anchor="middle" class="tick">0.3</text>
<line x1="1490" y1="170" x2="1490" y2="890" class="grid"/>
<text x="1490" y="938" text-anchor="middle" class="tick">0.4</text>
<line x1="260" y1="890" x2="1490" y2="890" class="grid"/>
<text x="220" y="900" text-anchor="end" class="tick">0.0</text>
<line x1="260" y1="730" x2="1490" y2="730" class="grid"/>
<text x="220" y="740" text-anchor="end" class="tick">0.1</text>
<line x1="260" y1="570" x2="1490" y2="570" class="grid"/>
<text x="220" y="580" text-anchor="end" class="tick">0.2</text>
<line x1="260" y1="410" x2="1490" y2="410" class="grid"/>
<text x="220" y="420" text-anchor="end" class="tick">0.3</text>
<line x1="260" y1="250" x2="1490" y2="250" class="grid"/>
<text x="220" y="260" text-anchor="end" class="tick">0.4</text>
<line x1="260" y1="890" x2="1490" y2="890" class="axis"/>
<line x1="260" y1="170" x2="260" y2="890" class="axis"/>
<text x="875" y="994" text-anchor="middle">Hidden influence</text>
<text x="80" y="530" text-anchor="middle" transform="rotate(-90 80 530)">Total influence distortion</text>
<rect x="1212.0" y="294.8" width="24" height="24" fill="#111111" class="point"/>
<rect x="534.3" y="668.1" width="24" height="24" fill="#111111" class="point"/>
<rect x="1478" y="350.3" width="24" height="24" fill="#111111" class="point"/>
<rect x="695.7" y="607.8" width="24" height="24" fill="#111111" class="point"/>
<line x1="1224.0" y1="306.8" x2="1224.0" y2="331" class="leader"/>
<line x1="1490" y1="362.3" x2="1490" y2="320.3" class="leader"/>
<line x1="707.7" y1="619.8" x2="707.7" y2="641" class="leader"/>
<line x1="546.3" y1="680.1" x2="546.3" y2="722.1" class="leader"/>
<rect x="1155" y="331" width="135" height="46" fill="#ffffff" class="label-box"/>
<text x="1170" y="362" text-anchor="start" class="label">Low E/D</text>
<rect x="1362.5" y="274.3" width="255" height="46" fill="#ffffff" class="label-box"/>
<text x="1377.5" y="305.3" text-anchor="start" class="label">Finance+evasion</text>
<rect x="615" y="641" width="210" height="46" fill="#ffffff" class="label-box"/>
<text x="630" y="672" text-anchor="start" class="label">Cooling+door</text>
<rect x="471.3" y="722.1" width="150" height="46" fill="#ffffff" class="label-box"/>
<text x="486.3" y="753.1" text-anchor="start" class="label">High E/D</text>
</svg>
