<svg xmlns="http://www.w3.org/2000/svg" width="1800px" height="1100px" viewBox="0 0 1800 1100" role="img">
<title>Interaction tradeoff view</title>
<desc>Scatter plot comparing hidden influence against total influence distortion after reforms bind.</desc>
<style>
text { font-family: Helvetica, Arial, sans-serif; font-size: 34px; fill: #111; }
.title { font-size: 46px; font-weight: 700; }
.subtitle { font-size: 30px; fill: #444; }
.small, .tick, .label { font-size: 28px; }
.axis { stroke: #111; stroke-width: 5; fill: none; }
.grid { stroke: #d8d8d8; stroke-width: 3; fill: none; }
.segment, .point, .legend-swatch { stroke: #111; stroke-width: 2; }
.label-box { fill: #fff; stroke: #111; stroke-width: 2; }
.leader { stroke: #333; stroke-width: 2; fill: none; stroke-dasharray: 8 8; }
.threshold { stroke: #999; stroke-width: 4; fill: none; stroke-dasharray: 12 12; }
.series-primary { stroke: #111; stroke-width: 8; fill: none; }
.series-secondary { stroke: #777; stroke-width: 8; fill: none; stroke-dasharray: 24 18; }
</style>
<rect width="100%" height="100%" fill="#fff"/>
<text x="70" y="72" text-anchor="start" class="title">Interaction tradeoff view</text>
<text x="70" y="122" text-anchor="start" class="subtitle">Hidden influence versus total distortion</text>
<line x1="260" y1="170" x2="260" y2="890" class="grid"/>
<text x="260" y="938" text-anchor="middle" class="tick">0</text>
<line x1="567.5" y1="170" x2="567.5" y2="890" class="grid"/>
<text x="567.5" y="938" text-anchor="middle" class="tick">0.1</text>
<line x1="875" y1="170" x2="875" y2="890" class="grid"/>
<text x="875" y="938" text-anchor="middle" class="tick">0.2</text>
<line x1="1182.5" y1="170" x2="1182.5" y2="890" class="grid"/>
<text x="1182.5" y="938" text-anchor="middle" class="tick">0.3</text>
<line x1="1490" y1="170" x2="1490" y2="890" class="grid"/>
<text x="1490" y="938" text-anchor="middle" class="tick">0.4</text>
<line x1="260" y1="890" x2="1490" y2="890" class="grid"/>
<text x="220" y="900" text-anchor="end" class="tick">0.0</text>
<line x1="260" y1="730" x2="1490" y2="730" class="grid"/>
<text x="220" y="740" text-anchor="end" class="tick">0.1</text>
<line x1="260" y1="570" x2="1490" y2="570" class="grid"/>
<text x="220" y="580" text-anchor="end" class="tick">0.2</text>
<line x1="260" y1="410" x2="1490" y2="410" class="grid"/>
<text x="220" y="420" text-anchor="end" class="tick">0.3</text>
<line x1="260" y1="250" x2="1490" y2="250" class="grid"/>
<text x="220" y="260" text-anchor="end" class="tick">0.4</text>
<line x1="260" y1="890" x2="1490" y2="890" class="axis"/>
<line x1="260" y1="170" x2="260" y2="890" class="axis"/>
<text x="875" y="994" text-anchor="middle">Hidden influence</text>
<text x="80" y="530" text-anchor="middle" transform="rotate(-90 80 530)">Total influence distortion</text>
<rect x="1155.7" y="296.7" width="24" height="24" fill="#111111" class="point"/>
<rect x="641.0" y="656.7" width="24" height="24" fill="#111111" class="point"/>
<rect x="1478" y="324.9" width="24" height="24" fill="#111111" class="point"/>
<rect x="764.6" y="594.8" width="24" height="24" fill="#111111" class="point"/>
<line x1="1167.7" y1="308.7" x2="1167.7" y2="266.7" class="leader"/>
<line x1="1490" y1="336.9" x2="1490" y2="294.9" class="leader"/>
<line x1="776.6" y1="606.8" x2="776.6" y2="564.8" class="leader"/>
<line x1="653.0" y1="668.7" x2="653.0" y2="710.7" class="leader"/>
<rect x="1100.2" y="220.7" width="135" height="46" fill="#ffffff" class="label-box"/>
<text x="1115.2" y="251.7" text-anchor="start" class="label">Low E/D</text>
<rect x="1362.5" y="248.9" width="255" height="46" fill="#ffffff" class="label-box"/>
<text x="1377.5" y="279.9" text-anchor="start" class="label">Finance+evasion</text>
<rect x="671.6" y="518.8" width="210" height="46" fill="#ffffff" class="label-box"/>
<text x="686.6" y="549.8" text-anchor="start" class="label">Cooling+door</text>
<rect x="578.0" y="710.7" width="150" height="46" fill="#ffffff" class="label-box"/>
<text x="593.0" y="741.7" text-anchor="start" class="label">High E/D</text>
</svg>
